<svg width="284" height="228" viewBox="0 0 284 228" fill="none" xmlns="http://www.w3.org/2000/svg">
<g filter="url(#filter0_d_1642_415)">
<path d="M273.811 204.357C269.994 206.68 265.956 209.241 261.775 211.568C253.175 216.358 243.965 220.173 234.87 218.85C220.34 216.768 199.106 210.159 175.899 196.764C151.737 182.832 23.4348 109.896 17.0831 105.016C13.5612 102.291 8.52824 94.9728 6.31683 87.63C5.6188 85.4216 5.24497 83.1235 5.20703 80.8076C17.5622 82.9219 273.811 204.357 273.811 204.357Z" stroke="white" stroke-miterlimit="10"/>
<path d="M273.807 204.357C273.807 204.357 17.5622 82.9219 5.20703 80.8076C5.24497 83.1235 5.6188 85.4216 6.31683 87.63C6.31683 87.63 136.769 163.766 172.582 184.705C223.694 214.596 253.171 216.358 261.775 211.568C265.956 209.241 269.994 206.68 273.807 204.357Z" stroke="white" stroke-miterlimit="10"/>
<path d="M251.468 175.727C255.667 174.334 259.868 172.946 264.073 171.564C256.812 164.84 246.218 157.087 231.008 148.302L59.7223 49.3427L5.61658 80.8076L176.89 179.755C185.42 184.672 193.361 188.745 200.761 192.125C217.998 187.868 234.636 181.3 251.468 175.727Z" stroke="white" stroke-miterlimit="10"/>
<path d="M59.7263 46.7939L59.7181 49.5762L6.00958 80.8076L6.01777 78.0254L59.7263 46.7939Z" stroke="white" stroke-miterlimit="10"/>
<path d="M276.469 185.106C271.53 173.678 255.727 160.021 230.807 145.622L59.7264 46.7939V49.5762L230.799 148.405C255.723 162.799 271.522 176.461 276.461 187.884C277.54 190.209 278.123 192.734 278.172 195.297V192.515C278.126 189.953 277.546 187.43 276.469 185.106V185.106Z" stroke="white" stroke-miterlimit="10"/>
<path d="M277.644 188.61C277.767 188.319 277.886 188.024 278.013 187.737C277.744 186.815 277.417 185.91 277.034 185.029C271.993 173.375 256.558 160.034 231.213 145.389L59.7264 46.3229L45.5201 54.5835C45.5861 54.7048 45.6357 54.8343 45.6676 54.9687L59.7264 46.7941L230.807 145.623C255.727 160.021 271.53 173.678 276.469 185.106C276.96 186.238 277.354 187.41 277.644 188.61V188.61Z" stroke="white" stroke-miterlimit="10"/>
<path d="M108.365 61.3772L95.9362 69.7649L120.233 83.594L108.365 61.3772Z" stroke="white" stroke-miterlimit="10"/>
<path d="M54.6525 93.0593L56.2619 107.761L108.365 77.6649V61.8279L54.6525 93.0593Z" stroke="white" stroke-miterlimit="10"/>
<path d="M118.722 80.8567L119.111 80.6314L108.75 61.6024L108.365 61.8278L118.722 80.8567Z" stroke="white" stroke-miterlimit="10"/>
<path d="M174.838 116.923L174.834 118.177L163.818 111.814L163.822 110.56L174.838 116.923Z" stroke="white" stroke-miterlimit="10"/>
<path d="M175.801 116.346L175.797 117.599L174.834 118.177L174.838 116.923L175.801 116.346Z" stroke="white" stroke-miterlimit="10"/>
<path d="M164.81 109.99L163.823 110.56L174.839 116.923L175.822 116.35L164.81 109.99Z" stroke="white" stroke-miterlimit="10"/>
<path d="M171.583 115.059L168.806 113.891L166.636 112.203V72.7068L171.583 75.5669V115.059Z" stroke="white" stroke-miterlimit="10"/>
<path d="M172.586 114.481L171.582 115.059V75.5669L172.586 74.9891V114.481Z" stroke="white" stroke-miterlimit="10"/>
<path d="M171.583 75.567L166.636 72.7069L167.635 72.1292L172.586 74.9892L171.583 75.567Z" stroke="white" stroke-miterlimit="10"/>
<path d="M122.731 147.028L122.723 148.278L111.711 141.918L111.715 140.664L122.731 147.028Z" stroke="white" stroke-miterlimit="10"/>
<path d="M123.751 146.417L123.747 147.667L122.723 148.278L122.731 147.028L123.751 146.417Z" stroke="white" stroke-miterlimit="10"/>
<path d="M112.755 140.058L111.715 140.665L122.731 147.028L123.771 146.422L112.755 140.058Z" stroke="white" stroke-miterlimit="10"/>
<path d="M119.483 145.155L114.536 142.299V103.275L119.483 106.131V145.155Z" stroke="white" stroke-miterlimit="10"/>
<path d="M120.487 144.578L119.483 145.155V106.13L120.487 105.553V144.578Z" stroke="white" stroke-miterlimit="10"/>
<path d="M119.483 106.13L114.536 103.274L115.54 102.693L120.487 105.553L119.483 106.13Z" stroke="white" stroke-miterlimit="10"/>
<path d="M172.59 75.1817L172.586 76.7593L164.293 71.9693L164.297 70.3917L172.59 75.1817Z" stroke="white" stroke-miterlimit="10"/>
<path d="M164.297 70.3917L164.293 71.9693L146.012 82.5983L146.016 81.0207L164.297 70.3917Z" stroke="white" stroke-miterlimit="10"/>
<path d="M139.853 94.1697L139.849 95.7473L131.556 90.9532L131.56 89.3756L139.853 94.1697Z" stroke="white" stroke-miterlimit="10"/>
<path d="M131.56 89.3756L131.556 90.9532L113.165 101.652L113.169 100.07L131.56 89.3756Z" stroke="white" stroke-miterlimit="10"/>
<path d="M121.453 106.446L121.445 108.024L110.433 101.66L110.437 100.083L121.453 106.446Z" stroke="white" stroke-miterlimit="10"/>
<path d="M175.301 75.1816L175.297 76.7592L121.445 108.023L121.453 106.446L175.301 75.1816Z" stroke="white" stroke-miterlimit="10"/>
<path d="M164.29 68.8182L175.302 75.1817L121.45 106.446L110.454 100.082L164.29 68.8182ZM121.462 104.877L139.854 94.1861L131.561 89.3961L113.169 100.091L121.462 104.885V104.877ZM154.31 85.823L172.591 75.194L164.298 70.404L146.017 81.033L154.31 85.823Z" stroke="white" stroke-miterlimit="10"/>
<path d="M245.353 203.181C225.635 200.349 202.018 191.236 177.099 176.838L6.02607 78.0255L41.986 57.1281H41.167L5.20703 78.0255L176.693 177.092C202.047 191.736 225.119 200.632 245.227 203.525C261.153 205.803 270.539 203.554 273.762 201.8L273.471 201.509C270.432 203.222 261.198 205.475 245.353 203.181Z" stroke="white" stroke-miterlimit="10"/>
<path d="M278.357 179.091C278.364 179.044 278.373 178.998 278.385 178.952C278.081 177.481 277.624 176.046 277.022 174.67C274.102 167.925 267.689 160.615 257.905 152.818L207.28 182.07C220.835 187.758 233.535 191.495 245.226 193.166C261.456 195.49 270.932 193.105 273.975 191.339C276.194 189.936 277.77 187.712 278.357 185.152V179.091Z" stroke="white" stroke-miterlimit="10"/>
<path d="M258.458 189.016H255.833C255.538 189.016 255.591 188.778 255.952 188.483C256.288 188.197 256.698 188.013 257.135 187.95H258.728C259.039 187.95 258.753 189.016 258.458 189.016Z" stroke="white" stroke-miterlimit="10"/>
<path d="M271.538 181.464H268.938C268.643 181.464 268.696 181.226 269.057 180.931C269.393 180.646 269.803 180.461 270.24 180.398H271.833C272.12 180.382 271.833 181.464 271.538 181.464Z" stroke="white" stroke-miterlimit="10"/>
<path d="M257.471 153.088C267.251 160.874 273.668 168.196 276.583 174.94C277.417 176.796 277.961 178.767 278.197 180.788V179.415C278.147 176.853 277.564 174.33 276.485 172.007C273.647 165.451 267.197 158.124 257.504 150.363L254.637 154.74L257.471 153.088Z" stroke="white" stroke-miterlimit="10"/>
<path d="M259.179 187.577V188.655C259.185 188.687 259.185 188.721 259.179 188.753C259.082 188.871 258.954 188.96 258.809 189.009C258.665 189.059 258.509 189.066 258.36 189.032C258.254 189.015 258.152 188.98 258.057 188.929C258.003 188.904 257.956 188.865 257.922 188.816C257.887 188.767 257.866 188.71 257.86 188.651V187.573C257.866 187.633 257.887 187.69 257.922 187.738C257.956 187.787 258.003 187.826 258.057 187.852C258.151 187.903 258.254 187.936 258.36 187.95C258.509 187.985 258.664 187.978 258.809 187.93C258.953 187.881 259.082 187.793 259.179 187.675C259.185 187.643 259.185 187.61 259.179 187.577Z" stroke="white" stroke-miterlimit="10"/>
<path d="M258.978 187.299C259.142 187.393 259.22 187.536 259.158 187.676C259.061 187.793 258.933 187.881 258.788 187.93C258.643 187.978 258.488 187.985 258.339 187.95C258.233 187.936 258.131 187.903 258.036 187.852C257.873 187.753 257.799 187.614 257.864 187.471C257.962 187.353 258.09 187.265 258.235 187.217C258.38 187.168 258.535 187.161 258.683 187.196C258.787 187.214 258.886 187.249 258.978 187.299V187.299Z" stroke="white" stroke-miterlimit="10"/>
<path d="M259.519 187.2V187.61C259.52 187.662 259.508 187.714 259.486 187.762C259.338 188.077 258.786 188.266 258.257 188.171C258.096 188.152 257.94 188.1 257.799 188.02C257.717 187.984 257.646 187.927 257.593 187.855C257.539 187.783 257.506 187.699 257.496 187.61V187.2C257.506 187.288 257.54 187.372 257.592 187.444C257.644 187.516 257.714 187.573 257.795 187.61C257.936 187.69 258.092 187.742 258.253 187.762C258.798 187.848 259.351 187.663 259.482 187.352C259.505 187.305 259.518 187.253 259.519 187.2V187.2Z" stroke="white" stroke-miterlimit="10"/>
<path d="M259.22 186.79C259.47 186.934 259.585 187.151 259.486 187.364C259.339 187.68 258.786 187.864 258.258 187.774C258.097 187.754 257.941 187.703 257.799 187.622C257.549 187.479 257.435 187.262 257.533 187.053C257.676 186.737 258.233 186.553 258.762 186.643C258.922 186.665 259.077 186.715 259.22 186.79V186.79Z" stroke="white" stroke-miterlimit="10"/>
<path d="M259.179 186.409V187.122C259.185 187.155 259.185 187.188 259.179 187.221C259.082 187.339 258.954 187.428 258.809 187.477C258.664 187.526 258.509 187.534 258.36 187.499C258.253 187.484 258.151 187.449 258.057 187.397C258.003 187.372 257.957 187.334 257.923 187.286C257.888 187.237 257.867 187.181 257.86 187.122V186.405C257.865 186.465 257.886 186.521 257.921 186.57C257.956 186.618 258.002 186.656 258.057 186.68C258.238 186.778 258.447 186.814 258.651 186.783C258.855 186.752 259.043 186.655 259.187 186.508C259.193 186.475 259.193 186.442 259.187 186.409H259.179Z" stroke="white" stroke-miterlimit="10"/>
<path d="M258.978 186.131C259.142 186.225 259.22 186.368 259.158 186.508C259.014 186.655 258.826 186.752 258.622 186.783C258.418 186.814 258.21 186.778 258.028 186.68C257.864 186.586 257.791 186.446 257.856 186.303C257.951 186.182 258.079 186.092 258.225 186.043C258.37 185.994 258.527 185.989 258.675 186.028C258.782 186.044 258.884 186.078 258.978 186.131V186.131Z" stroke="white" stroke-miterlimit="10"/>
<path d="M259.519 186.188V186.598C259.52 186.649 259.508 186.699 259.486 186.745C259.338 187.061 258.786 187.249 258.257 187.155C258.097 187.132 257.941 187.081 257.799 187.003C257.718 186.967 257.647 186.91 257.594 186.838C257.541 186.766 257.507 186.682 257.496 186.594V186.184C257.506 186.272 257.54 186.356 257.592 186.428C257.644 186.499 257.714 186.557 257.795 186.594C257.937 186.671 258.093 186.722 258.253 186.745C258.798 186.831 259.351 186.643 259.482 186.336C259.505 186.29 259.518 186.239 259.519 186.188Z" stroke="white" stroke-miterlimit="10"/>
<path d="M259.22 185.766C259.47 185.91 259.585 186.123 259.486 186.336C259.339 186.651 258.786 186.84 258.258 186.745C258.097 186.722 257.942 186.671 257.799 186.594C257.549 186.45 257.435 186.233 257.533 186.024C257.676 185.705 258.233 185.52 258.762 185.614C258.923 185.636 259.078 185.687 259.22 185.766V185.766Z" stroke="white" stroke-miterlimit="10"/>
<path d="M272.283 180.005V181.087C272.283 181.121 272.275 181.155 272.259 181.185C272.161 181.303 272.033 181.391 271.888 181.439C271.744 181.488 271.588 181.495 271.44 181.46C271.334 181.445 271.231 181.412 271.137 181.361C271.083 181.336 271.036 181.297 271.002 181.248C270.967 181.199 270.946 181.142 270.94 181.083V180.005C270.946 180.064 270.968 180.12 271.002 180.168C271.037 180.216 271.083 180.255 271.137 180.279C271.231 180.332 271.333 180.367 271.44 180.382C271.589 180.417 271.744 180.409 271.889 180.36C272.034 180.31 272.162 180.222 272.259 180.103C272.275 180.073 272.283 180.039 272.283 180.005V180.005Z" stroke="white" stroke-miterlimit="10"/>
<path d="M272.083 179.73C272.247 179.825 272.324 179.964 272.259 180.103C272.162 180.222 272.034 180.31 271.889 180.36C271.744 180.409 271.589 180.417 271.44 180.382C271.333 180.367 271.231 180.332 271.137 180.279C270.973 180.185 270.899 180.042 270.961 179.902C271.058 179.785 271.186 179.697 271.331 179.648C271.476 179.6 271.631 179.593 271.78 179.628C271.886 179.643 271.989 179.678 272.083 179.73V179.73Z" stroke="white" stroke-miterlimit="10"/>
<path d="M272.623 179.624V180.034C272.624 180.085 272.613 180.135 272.591 180.181C272.443 180.497 271.886 180.685 271.362 180.591C271.201 180.568 271.046 180.517 270.903 180.439C270.822 180.403 270.751 180.346 270.698 180.274C270.645 180.203 270.611 180.118 270.6 180.03V179.62C270.61 179.708 270.643 179.792 270.695 179.864C270.748 179.936 270.818 179.993 270.899 180.03C271.042 180.107 271.197 180.158 271.358 180.181C271.903 180.267 272.455 180.079 272.586 179.771C272.608 179.725 272.62 179.675 272.623 179.624V179.624Z" stroke="white" stroke-miterlimit="10"/>
<path d="M272.325 179.202C272.575 179.345 272.689 179.558 272.591 179.771C272.443 180.087 271.891 180.275 271.362 180.181C271.202 180.158 271.046 180.107 270.904 180.029C270.654 179.886 270.539 179.669 270.638 179.46C270.781 179.14 271.338 178.956 271.866 179.05C272.027 179.071 272.183 179.123 272.325 179.202V179.202Z" stroke="white" stroke-miterlimit="10"/>
<path d="M272.283 178.837V179.554C272.283 179.588 272.275 179.622 272.259 179.653C272.161 179.77 272.033 179.858 271.888 179.907C271.744 179.955 271.588 179.962 271.44 179.927C271.334 179.913 271.231 179.88 271.137 179.829C271.083 179.803 271.036 179.764 271.002 179.715C270.967 179.667 270.946 179.61 270.94 179.55V178.833C270.946 178.893 270.967 178.95 271.002 178.998C271.036 179.047 271.083 179.086 271.137 179.112C271.231 179.162 271.334 179.197 271.44 179.214C271.589 179.249 271.744 179.241 271.889 179.192C272.034 179.143 272.162 179.054 272.259 178.935C272.275 178.905 272.283 178.871 272.283 178.837V178.837Z" stroke="white" stroke-miterlimit="10"/>
<path d="M272.083 178.563C272.247 178.657 272.324 178.796 272.259 178.935C272.162 179.054 272.034 179.143 271.889 179.192C271.744 179.241 271.589 179.249 271.44 179.214C271.334 179.197 271.232 179.162 271.137 179.112C270.973 179.017 270.899 178.874 270.961 178.735C271.104 178.587 271.292 178.491 271.495 178.46C271.698 178.429 271.906 178.465 272.087 178.563H272.083Z" stroke="white" stroke-miterlimit="10"/>
<path d="M272.623 178.616V179.026C272.624 179.078 272.613 179.13 272.591 179.177C272.443 179.493 271.886 179.681 271.362 179.587C271.201 179.564 271.046 179.513 270.903 179.435C270.822 179.399 270.751 179.342 270.698 179.271C270.645 179.199 270.611 179.114 270.6 179.026V178.616C270.609 178.705 270.641 178.789 270.694 178.861C270.747 178.934 270.817 178.99 270.899 179.026C271.041 179.106 271.196 179.158 271.358 179.177C271.903 179.263 272.455 179.079 272.586 178.767C272.608 178.72 272.621 178.668 272.623 178.616V178.616Z" stroke="white" stroke-miterlimit="10"/>
<path d="M272.325 178.186C272.575 178.329 272.689 178.546 272.591 178.759C272.443 179.075 271.891 179.259 271.362 179.169C271.201 179.149 271.045 179.098 270.904 179.017C270.654 178.874 270.539 178.661 270.638 178.448C270.781 178.132 271.338 177.948 271.866 178.038C272.026 178.06 272.182 178.11 272.325 178.186V178.186Z" stroke="white" stroke-miterlimit="10"/>
<path d="M277.034 171.921C274.118 165.176 267.701 157.866 257.922 150.073L257.471 150.322C267.173 158.108 273.631 165.405 276.473 171.982C280.502 181.23 276.542 186.614 273.569 188.339C270.596 190.064 261.341 192.371 245.357 190.077C233.936 188.438 221.196 184.672 207.682 179.013L207.223 179.28C220.807 184.984 233.526 188.704 245.239 190.405C261.468 192.724 270.944 190.343 273.987 188.573C277.03 186.803 281.109 181.308 277.034 171.921Z" stroke="white" stroke-miterlimit="10"/>
<path d="M54.2347 93.3011L108.75 61.6026L59.7264 33.2804L5.20703 64.9789L54.2347 93.3011Z" stroke="white" stroke-miterlimit="10"/>
<path d="M6.10388 64.9789L59.7223 33.8008L107.853 61.6026L54.2306 92.7807L6.10388 64.9789Z" stroke="white" stroke-miterlimit="10"/>
<path d="M59.7223 37.001L105.093 63.2088L107.853 61.6026L59.7223 33.8008L6.10388 64.9789L8.86404 66.5729L59.7223 37.001Z" stroke="white" stroke-miterlimit="10"/>
<path d="M59.7223 37.001V33.8008L6.10388 64.9789L8.86404 66.5729L59.7223 37.001Z" stroke="white" stroke-miterlimit="10"/>
<path d="M5.20703 78.3942V64.9829L54.2347 93.301L64.6324 112.355L176.693 177.096C184.611 181.666 192.293 185.673 199.741 189.118L207.244 179.304C220.815 185.004 233.522 188.729 245.227 190.421C261.456 192.74 270.932 190.359 273.975 188.589C276.104 187.36 278.733 184.303 278.746 179.386V192.609C278.746 192.568 278.746 192.535 278.746 192.494V195.276C278.746 200.193 276.104 203.242 273.975 204.484C270.932 206.25 261.456 208.634 245.227 206.311C225.115 203.418 202.051 194.522 176.693 179.874L5.20703 80.8076V78.3982V78.3942Z" stroke="white" stroke-miterlimit="10"/>
<path d="M54.6524 93.0593L54.2347 93.3011L64.5751 112.31L64.9928 112.064L54.6524 93.0593Z" stroke="white" stroke-miterlimit="10"/>
<path d="M229.996 171.216L234.321 173.711H237.818L237.847 165.844L230.246 170.236H227.765L226.069 171.216H229.996Z" stroke="white" stroke-miterlimit="10"/>
<path d="M237.847 173.711L232.204 170.437L232.912 165.811L236.913 168.138L237.847 173.711Z" stroke="white" stroke-miterlimit="10"/>
<path d="M236.913 168.138L232.912 165.811L236.246 163.881L240.251 166.209L236.913 168.138Z" stroke="white" stroke-miterlimit="10"/>
<path d="M240.251 166.208L242.688 170.917L237.847 173.711L236.913 168.138L240.251 166.208Z" stroke="white" stroke-miterlimit="10"/>
<path d="M242.257 129.343C242.224 129.311 242.179 129.293 242.133 129.293C242.086 129.293 242.041 129.311 242.008 129.343L236.684 134.473C236.652 134.507 236.634 134.551 236.634 134.598C236.634 134.645 236.652 134.689 236.684 134.723C236.718 134.756 236.763 134.774 236.811 134.776C236.834 134.777 236.856 134.772 236.877 134.764C236.898 134.756 236.917 134.743 236.934 134.727L242.257 129.597C242.275 129.581 242.288 129.561 242.297 129.539C242.307 129.517 242.311 129.494 242.311 129.47C242.311 129.446 242.307 129.423 242.297 129.401C242.288 129.379 242.275 129.359 242.257 129.343V129.343Z" stroke="white" stroke-miterlimit="10"/>
<path d="M237.249 132.125C237.18 132.257 237.068 132.362 236.932 132.422C236.796 132.482 236.644 132.495 236.5 132.457C236.402 132.444 236.308 132.414 236.221 132.367C236.173 132.344 236.131 132.309 236.1 132.266C236.069 132.222 236.05 132.17 236.045 132.117V165.196C236.05 165.25 236.069 165.301 236.1 165.345C236.131 165.389 236.173 165.424 236.221 165.446C236.307 165.493 236.4 165.523 236.496 165.537C236.628 165.57 236.768 165.565 236.898 165.521C237.028 165.477 237.143 165.398 237.229 165.291C237.265 165.205 237.249 132.125 237.249 132.125Z" stroke="white" stroke-miterlimit="10"/>
<path d="M237.073 131.883C236.989 131.838 236.897 131.807 236.803 131.793C236.669 131.759 236.529 131.763 236.398 131.807C236.267 131.85 236.151 131.931 236.066 132.039C236.008 132.162 236.066 132.289 236.221 132.375C236.308 132.422 236.402 132.452 236.5 132.465C236.632 132.498 236.771 132.493 236.9 132.449C237.029 132.406 237.143 132.326 237.229 132.219C237.286 132.088 237.216 131.961 237.073 131.883Z" stroke="white" stroke-miterlimit="10"/>
<path d="M236.176 134.621L231.028 135.69C230.986 135.699 230.949 135.724 230.923 135.759C230.898 135.794 230.887 135.838 230.891 135.881C230.896 135.924 230.916 135.964 230.948 135.993C230.98 136.022 231.022 136.038 231.065 136.038C231.102 136.038 236.246 134.969 236.246 134.969C236.292 134.959 236.332 134.932 236.358 134.893C236.384 134.854 236.394 134.806 236.385 134.76C236.373 134.715 236.346 134.676 236.307 134.65C236.269 134.625 236.222 134.614 236.176 134.621Z" stroke="white" stroke-miterlimit="10"/>
<path d="M230.455 136.186V136.481L243.638 128.802V128.511L230.455 136.186Z" stroke="white" stroke-miterlimit="10"/>
<path d="M230.455 136.186V136.481L229.153 135.727V135.436L230.455 136.186Z" stroke="white" stroke-miterlimit="10"/>
<path d="M242.335 127.757L229.153 135.436L230.455 136.186L243.638 128.511L242.335 127.757Z" stroke="white" stroke-miterlimit="10"/>
<path d="M237.065 122.734C237.018 122.825 236.941 122.898 236.847 122.939C236.753 122.981 236.648 122.99 236.549 122.963C236.481 122.956 236.416 122.935 236.356 122.902C236.323 122.886 236.294 122.862 236.273 122.832C236.252 122.802 236.24 122.766 236.237 122.73V131.744C236.242 131.78 236.255 131.815 236.277 131.845C236.298 131.874 236.327 131.897 236.36 131.912C236.472 131.971 236.599 131.992 236.724 131.973C236.848 131.954 236.964 131.895 237.052 131.806C237.073 131.748 237.065 122.734 237.065 122.734Z" stroke="white" stroke-miterlimit="10"/>
<path d="M236.942 122.566C236.831 122.506 236.703 122.485 236.578 122.504C236.454 122.523 236.338 122.582 236.25 122.672C236.209 122.754 236.25 122.844 236.356 122.902C236.416 122.935 236.481 122.956 236.549 122.963C236.639 122.987 236.735 122.984 236.824 122.954C236.913 122.924 236.991 122.869 237.048 122.795C237.089 122.709 237.04 122.623 236.942 122.566Z" stroke="white" stroke-miterlimit="10"/>
<path d="M237.478 122.316C237.478 122.478 237.43 122.636 237.34 122.771C237.25 122.906 237.122 123.011 236.973 123.073C236.823 123.135 236.658 123.151 236.5 123.119C236.341 123.088 236.195 123.01 236.08 122.895C235.966 122.781 235.888 122.635 235.856 122.476C235.824 122.317 235.841 122.152 235.903 122.002C235.965 121.852 236.07 121.724 236.204 121.634C236.339 121.544 236.497 121.496 236.659 121.496C236.877 121.496 237.085 121.583 237.239 121.736C237.392 121.89 237.478 122.098 237.478 122.316Z" stroke="white" stroke-miterlimit="10"/>
<path d="M27.833 78.0541H28.6807L32.309 80.1479H40.782L42.1908 79.1809H52.31L45.0779 54.2474L31.7644 49.5393L5.20703 64.9788L27.833 78.0541Z" stroke="white" stroke-miterlimit="10"/>
<path d="M40.782 63.4423L21.8909 52.5305V69.2362L40.782 80.1479V63.4423Z" stroke="white" stroke-miterlimit="10"/>
<path d="M81.7543 56.4767L40.7819 80.1481V63.4425L81.7543 39.771V56.4767Z" stroke="white" stroke-miterlimit="10"/>
<path d="M40.782 63.4423L21.8909 52.5306L62.8633 28.8591L81.7545 39.7709L40.782 63.4423Z" stroke="white" stroke-miterlimit="10"/>
<path d="M52.3099 68.6543L47.4694 65.8557V76.3823L52.3099 79.1809V68.6543Z" stroke="white" stroke-miterlimit="10"/>
<path d="M80.8085 62.717L52.31 79.1809V68.6543L80.8085 52.1904V62.717Z" stroke="white" stroke-miterlimit="10"/>
<path d="M52.3099 68.6545L47.4694 65.8559L75.9679 49.392L80.8084 52.1906L52.3099 68.6545Z" stroke="white" stroke-miterlimit="10"/>
<path d="M63.9157 48.1339C63.9567 48.1339 64.0386 48.1339 64.0386 48.1625V49.8261C64.0386 49.8835 63.8953 49.8835 63.8953 49.8261V48.1625C63.8991 48.1512 63.9063 48.1412 63.9157 48.1339V48.1339ZM49.4556 56.4887V58.1523C49.4556 58.2097 49.603 58.2056 49.603 58.1523V56.4887C49.603 56.4519 49.5211 56.4355 49.4802 56.4601C49.4392 56.4846 49.4556 56.5092 49.4556 56.4887ZM52.3222 54.8497V56.5133C52.3222 56.5707 52.4656 56.5666 52.4656 56.5133V54.8497C52.4656 54.8128 52.3837 54.7965 52.3427 54.821C52.3265 54.8263 52.3123 54.8363 52.3018 54.8497H52.3222ZM55.1643 53.2107V54.8702C55.1643 54.9276 55.3076 54.9276 55.3076 54.8702V53.2107C55.3076 53.1738 55.2257 53.1574 55.1848 53.182C55.1763 53.1837 55.1683 53.1871 55.1613 53.192C55.1542 53.197 55.1483 53.2033 55.1438 53.2107H55.1643ZM58.0064 51.5717V53.2353C58.0064 53.2886 58.1497 53.2886 58.1497 53.2353V51.5717C58.1497 51.5348 58.0719 51.5225 58.0268 51.543C58.0104 51.5478 57.996 51.5579 57.9859 51.5717H58.0064ZM60.8443 49.9327V51.5963C60.8443 51.6536 60.9918 51.6495 60.9918 51.5963V49.9327C60.9918 49.8958 60.9099 49.8794 60.8689 49.904C60.8508 49.9076 60.8348 49.9178 60.8239 49.9327H60.8443ZM40.7042 61.5615V63.2251C40.7042 63.2784 40.8475 63.2784 40.8475 63.2251V61.5615C40.8475 61.5246 40.7697 61.5082 40.7287 61.5328C40.6878 61.5574 40.7042 61.5656 40.7042 61.5615ZM43.5503 59.9225V61.5861C43.5503 61.6434 43.6937 61.6393 43.6937 61.5861V59.9225C43.6937 59.8856 43.6118 59.8692 43.5708 59.8938C43.5298 59.9184 43.5503 59.9225 43.5503 59.9184V59.9225ZM46.3883 58.2835V59.9471C46.3883 60.0003 46.5316 60.0003 46.5316 59.9471V58.2835C46.5316 58.2466 46.4497 58.2302 46.4088 58.2548C46.3678 58.2794 46.3883 58.2835 46.3883 58.2794V58.2835ZM72.6508 43.1226V44.7862C72.6508 44.8435 72.7941 44.8394 72.7941 44.7862V43.1226C72.7941 43.0857 72.7122 43.0693 72.6713 43.0939C72.6303 43.1185 72.6508 43.1103 72.6508 43.1062V43.1226ZM75.4929 41.4836V43.1472C75.4929 43.2045 75.6362 43.2004 75.6362 43.1472V41.4631C75.6362 41.4262 75.5584 41.4098 75.5174 41.4344C75.5069 41.4417 75.4984 41.4515 75.4929 41.4631V41.4836ZM78.3595 39.8445V41.4836C78.3595 41.5409 78.5069 41.5409 78.5069 41.4836V39.82C78.5069 39.7831 78.425 39.7708 78.3841 39.7913C78.3738 39.79 78.3635 39.7927 78.3551 39.7988C78.3468 39.8049 78.341 39.8139 78.339 39.8241L78.3595 39.8445ZM81.2016 38.2055V39.8691C81.2016 39.9224 81.3449 39.9224 81.3449 39.8691V38.1809C81.3449 38.14 81.263 38.1277 81.222 38.1523C81.1811 38.1768 81.1811 38.185 81.1811 38.1809L81.2016 38.2055ZM66.7619 46.544V48.2076C66.7619 48.265 66.9052 48.2609 66.9052 48.2076V46.544C66.9052 46.5071 66.8233 46.4908 66.7824 46.5153C66.7414 46.5399 66.7414 46.5235 66.7414 46.5194L66.7619 46.544ZM69.5999 44.905V46.5686C69.5999 46.6219 69.7473 46.6219 69.7432 46.5686V44.905C69.7432 44.8681 69.6613 44.8517 69.6203 44.8763C69.5794 44.9009 69.5794 44.8845 69.5794 44.8804L69.5999 44.905Z" stroke="white" stroke-miterlimit="10"/>
<path d="M45.3931 37.4353C45.4341 37.4107 45.516 37.4353 45.516 37.4639V39.1275C45.516 39.1808 45.3727 39.1849 45.3727 39.1275V37.4639C45.3727 37.4639 45.3768 37.4435 45.3931 37.4353ZM30.933 45.8065V47.4742C30.933 47.5275 31.0763 47.5275 31.0763 47.4742V45.8106C31.0763 45.7737 30.9985 45.7615 30.9576 45.7819C30.9474 45.7879 30.939 45.7964 30.933 45.8065V45.8065ZM33.7792 44.1675V45.8352C33.7792 45.8885 33.9266 45.8885 33.9266 45.8352V44.1716C33.9266 44.1347 33.8447 44.1183 33.8037 44.1429C33.7984 44.1443 33.7934 44.1468 33.7891 44.1504C33.7849 44.1539 33.7815 44.1584 33.7792 44.1634V44.1675ZM36.6212 42.5285V44.1962C36.6212 44.2495 36.7646 44.2495 36.7646 44.1962V42.5326C36.7646 42.4957 36.6827 42.4793 36.6417 42.5039C36.6008 42.5285 36.6212 42.5244 36.6212 42.5203V42.5285ZM39.4633 40.8895V42.5572C39.4633 42.6145 39.6066 42.6104 39.6066 42.5572V40.8772C39.6066 40.8403 39.5247 40.8239 39.4838 40.8485C39.4428 40.8731 39.4633 40.8813 39.4633 40.8772V40.8895ZM42.3013 39.2505V40.9182C42.3013 40.9714 42.4446 40.9714 42.4446 40.9182V39.2382C42.4446 39.2013 42.3668 39.1849 42.3258 39.2095C42.2849 39.2341 42.3013 39.2423 42.3013 39.2382V39.2505ZM22.1816 50.8629V52.5019C22.1816 52.5593 22.3249 52.5593 22.3249 52.5019V50.8383C22.3249 50.8014 22.243 50.785 22.202 50.8096C22.1946 50.8162 22.1888 50.8245 22.1852 50.8337C22.1817 50.843 22.1804 50.853 22.1816 50.8629V50.8629ZM25.0236 49.2239V50.8875C25.0236 50.9407 25.1711 50.9407 25.1711 50.8875V49.2485C25.1711 49.2075 25.0892 49.1952 25.0482 49.2157C25.0398 49.2156 25.0315 49.2169 25.0236 49.2198V49.2239ZM27.8657 47.5849V49.2239C27.8657 49.2812 28.009 49.2812 28.009 49.2239V47.5603C28.009 47.5234 27.9271 47.507 27.8862 47.5316C27.8793 47.5377 27.8739 47.5453 27.8703 47.5538C27.8668 47.5624 27.8652 47.5716 27.8657 47.5808V47.5849ZM54.1282 32.424V34.0876C54.1282 34.1408 54.2715 34.1408 54.2715 34.0876V32.4486C54.2715 32.4076 54.1896 32.3953 54.1487 32.4158C54.1423 32.4121 54.1354 32.4093 54.1282 32.4076V32.424ZM56.9703 30.785V32.4486C56.9703 32.5018 57.1136 32.5018 57.1136 32.4486V30.7645C57.1136 30.7276 57.0317 30.7112 56.9907 30.7358C56.9498 30.7604 56.9703 30.7686 56.9703 30.7645V30.785ZM59.8123 29.1459V30.8095C59.8123 30.8669 59.9557 30.8628 59.9557 30.8095V29.1214C59.9557 29.0845 59.8738 29.0681 59.8328 29.0927C59.7918 29.1173 59.8123 29.1254 59.8123 29.1214V29.1459ZM62.6585 27.5069V29.1705C62.6585 29.2279 62.8018 29.2238 62.8018 29.1705V27.4782C62.8018 27.4414 62.7199 27.425 62.679 27.4496C62.6702 27.4576 62.6633 27.4674 62.6585 27.4782V27.5069ZM48.2065 35.8208V37.4844C48.2065 37.5377 48.3499 37.5377 48.3499 37.4844V35.8454C48.3499 35.8085 48.268 35.7921 48.227 35.8167C48.1861 35.8413 48.2065 35.8249 48.2065 35.8208ZM51.0445 34.1818V35.8454C51.0445 35.8987 51.1878 35.8987 51.1878 35.8454V34.1777C51.1878 34.1408 51.11 34.1285 51.0691 34.149C51.0669 34.1601 51.0684 34.1716 51.0732 34.1818H51.0445Z" stroke="white" stroke-miterlimit="10"/>
<path d="M79.1623 36.9395V38.6031C79.1623 38.6563 79.019 38.6563 79.019 38.6031V36.964C79.019 36.9231 79.1009 36.9108 79.1418 36.9313C79.149 36.933 79.1559 36.9358 79.1623 36.9395V36.9395ZM70.3863 31.8503C70.3453 31.8257 70.2634 31.8503 70.2634 31.879V33.5426C70.2634 33.5959 70.4068 33.6 70.4068 33.5426V31.879C70.402 31.8681 70.395 31.8584 70.3863 31.8503V31.8503ZM67.5442 30.2113C67.5033 30.1867 67.4214 30.2113 67.4214 30.24V31.9036C67.4214 31.9609 67.5647 31.9609 67.5647 31.9036V30.2646C67.5666 30.254 67.5656 30.2432 67.5621 30.2332C67.5585 30.2231 67.5523 30.2142 67.5442 30.2072V30.2113ZM64.7021 28.5723C64.6612 28.5723 64.5793 28.5723 64.5793 28.6051V30.2441C64.5793 30.3014 64.7226 30.3014 64.7226 30.2441V28.5969C64.7187 28.5844 64.7116 28.5731 64.7021 28.5641V28.5723ZM76.2956 35.2636C76.2547 35.239 76.1728 35.2636 76.1728 35.2922V36.9558C76.1728 37.0091 76.3161 37.0132 76.3161 36.9558V35.2922C76.3113 35.2814 76.3044 35.2716 76.2956 35.2636V35.2636ZM73.4577 33.6245C73.4167 33.6 73.3348 33.6245 73.3348 33.6532V35.3168C73.3348 35.3701 73.4782 35.3742 73.4782 35.3168V33.6532C73.4782 33.6532 73.4741 33.6327 73.4577 33.6245Z" stroke="white" stroke-miterlimit="10"/>
<path d="M38.7426 60.5003V61.9508C38.7426 62.0082 38.5992 62.0041 38.5992 61.9508V60.5003C38.5992 60.4634 38.6771 60.447 38.7221 60.4716C38.7671 60.4962 38.7426 60.5044 38.7426 60.5003ZM29.9666 55.4112C29.9256 55.3866 29.8437 55.4112 29.8437 55.4398V56.8986C29.8437 56.9518 29.987 56.9559 29.987 56.8986V55.448C29.9848 55.4337 29.9775 55.4206 29.9666 55.4112V55.4112ZM27.0999 53.7721C27.059 53.7517 26.9771 53.7721 26.9812 53.8049V55.2595C26.9812 55.3128 27.1245 55.3169 27.1245 55.2595V53.809C27.1273 53.7953 27.1259 53.781 27.1204 53.768L27.0999 53.7721ZM24.2579 52.1331C24.2169 52.1085 24.135 52.1331 24.135 52.1618V53.6205C24.135 53.6779 24.2783 53.6779 24.2783 53.6205V52.17C24.2783 52.17 24.2947 52.1372 24.2783 52.129L24.2579 52.1331ZM35.8759 58.8244C35.8309 58.7998 35.7531 58.8244 35.7531 58.8531V60.3077C35.7531 60.361 35.8964 60.3651 35.8964 60.3077V58.8572C35.8933 58.8443 35.8861 58.8328 35.8759 58.8244V58.8244ZM33.0339 57.1854C32.9929 57.1608 32.911 57.1854 32.911 57.2141V58.6687C32.911 58.722 33.0584 58.722 33.0584 58.6687V57.2141C33.059 57.2043 33.0576 57.1946 33.0543 57.1854H33.0339Z" stroke="white" stroke-miterlimit="10"/>
<path d="M40.7575 61.836C40.6879 61.8155 21.9974 51.0185 21.9974 51.0185C21.9759 51.0071 21.958 50.99 21.9457 50.969C21.9334 50.948 21.9272 50.924 21.9278 50.8997C21.9277 50.876 21.9336 50.8526 21.9451 50.8318C21.9566 50.811 21.9732 50.7934 21.9933 50.7809L62.5644 27.2364C62.5848 27.2241 62.6082 27.2177 62.632 27.2177C62.6558 27.2177 62.6791 27.2241 62.6995 27.2364L81.3777 38.0498C81.3983 38.0612 81.4156 38.0778 81.4278 38.0979C81.44 38.1181 81.4467 38.141 81.4473 38.1646C81.447 38.1887 81.4404 38.2124 81.4282 38.2332C81.416 38.254 81.3986 38.2713 81.3777 38.2834L40.8353 61.8155C40.8127 61.8316 40.785 61.8388 40.7575 61.836V61.836ZM22.3291 50.8997L40.7575 61.5533L81.0501 38.1523L62.6217 27.4987L22.3291 50.8997Z" stroke="white" stroke-miterlimit="10"/>
<path d="M43.3088 50.068L30.4007 42.6105V51.0473L43.3088 58.5007V50.068Z" stroke="white" stroke-miterlimit="10"/>
<path d="M73.5723 41.0204L43.3088 58.5005V50.0677L73.5723 32.5876V41.0204Z" stroke="white" stroke-miterlimit="10"/>
<path d="M43.3088 50.068L30.4007 42.6105L60.6642 25.1304L73.5723 32.5879L43.3088 50.068Z" stroke="white" stroke-miterlimit="10"/>
<path d="M29.1926 43.475C29.0352 43.4048 28.8993 43.2936 28.7992 43.1531C28.6991 43.0126 28.6384 42.8479 28.6234 42.676V43.1513C28.6349 43.3268 28.6939 43.4958 28.7942 43.6402C28.8945 43.7846 29.0323 43.8989 29.1926 43.9708L41.9123 51.3177V50.8465L29.1926 43.475Z" stroke="white" stroke-miterlimit="10"/>
<path d="M74.7189 33.3786L44.6684 50.8177C44.2418 51.0337 43.7704 51.1463 43.2924 51.1463C42.8143 51.1463 42.3429 51.0337 41.9164 50.8177V51.2889C42.3434 51.5059 42.8155 51.6191 43.2944 51.6191C43.7733 51.6191 44.2455 51.5059 44.6725 51.2889L74.723 33.8498C74.8776 33.7792 75.0106 33.6688 75.1085 33.5298C75.2063 33.3909 75.2655 33.2284 75.28 33.059V32.5878C75.2647 32.7575 75.2048 32.9201 75.1062 33.059C75.0076 33.1979 74.874 33.3082 74.7189 33.3786V33.3786Z" stroke="white" stroke-miterlimit="10"/>
<path d="M74.7107 31.7888C75.4642 32.2273 75.4683 32.9402 74.7107 33.3787L44.6684 50.8178C44.2418 51.0338 43.7704 51.1464 43.2924 51.1464C42.8143 51.1464 42.3429 51.0338 41.9164 50.8178L29.1926 43.475C28.435 43.0366 28.4309 42.3236 29.1926 41.877L59.2636 24.4378C59.6893 24.2238 60.1591 24.1123 60.6355 24.1123C61.1119 24.1123 61.5817 24.2238 62.0074 24.4378L74.7107 31.7888Z" stroke="white" stroke-miterlimit="10"/>
<path d="M58.6697 32.2519L57.5313 31.5881L55.9751 25.6139L57.1177 26.2777L58.6697 32.2519Z" stroke="white" stroke-miterlimit="10"/>
<path d="M52.3591 29.027L51.2166 28.3632V27.679L52.355 28.3428L52.3591 29.027Z" stroke="white" stroke-miterlimit="10"/>
<path d="M52.355 28.3428L51.2165 27.679L57.4535 24.0773L58.5919 24.7411L52.355 28.3428Z" stroke="white" stroke-miterlimit="10"/>
<path d="M58.592 24.741L60.3038 31.3093L58.6698 32.2518L57.1178 26.2775L52.3591 29.027L52.355 28.3427L58.592 24.741Z" stroke="white" stroke-miterlimit="10"/>
<path d="M51.9864 21.2663L51.3312 20.8852L51.3271 19.1602L51.9823 19.5412L51.9864 21.2663Z" stroke="white" stroke-miterlimit="10"/>
<path d="M51.9823 19.5413L58.8377 15.579L51.9864 21.2664L51.9823 19.5413Z" stroke="white" stroke-miterlimit="10"/>
<path d="M53.5591 42.4015L45.4506 37.6975L46.2164 20.3527L50.5614 22.8767L53.5591 42.4015Z" stroke="white" stroke-miterlimit="10"/>
<path d="M54.1775 20.7871L58.8092 39.3694L53.5591 42.4016L50.5615 22.8769L54.1775 20.7871Z" stroke="white" stroke-miterlimit="10"/>
<path d="M48.4074 23.3357L41.552 25.5647L48.4033 21.6106L48.4074 23.3357Z" stroke="white" stroke-miterlimit="10"/>
<path d="M51.9456 21.8276L51.9415 23.5527L58.7927 25.7859L51.9456 21.8276Z" stroke="white" stroke-miterlimit="10"/>
<path d="M59.7182 14.9192V15.2347L53.3502 18.9348L53.3543 18.6193L59.7182 14.9192Z" stroke="white" stroke-miterlimit="10"/>
<path d="M45.5079 20.2296C45.4346 20.1976 45.3712 20.1466 45.3244 20.0817C45.2776 20.0168 45.249 19.9405 45.2418 19.8608V20.1764C45.2495 20.2559 45.2782 20.332 45.3249 20.3968C45.3717 20.4616 45.4349 20.5128 45.5079 20.5451L46.6423 21.2007V20.8852L45.5079 20.2296Z" stroke="white" stroke-miterlimit="10"/>
<path d="M55.0497 20.3281L51.0078 22.68C50.8123 22.7791 50.5962 22.8307 50.3771 22.8307C50.158 22.8307 49.9419 22.7791 49.7464 22.68L48.051 21.7007V22.0162L49.7423 22.9956C49.938 23.0965 50.1549 23.1492 50.375 23.1492C50.5952 23.1492 50.8121 23.0965 51.0078 22.9956L55.0497 20.6436C55.1211 20.6117 55.1829 20.5616 55.2289 20.4983C55.2749 20.4351 55.3035 20.3608 55.3118 20.283V19.9634C55.3046 20.042 55.2765 20.1173 55.2304 20.1815C55.1844 20.2456 55.122 20.2962 55.0497 20.3281V20.3281Z" stroke="white" stroke-miterlimit="10"/>
<path d="M41.687 25.4007V25.7162L40.2741 24.9008V24.5853L41.687 25.4007Z" stroke="white" stroke-miterlimit="10"/>
<path d="M59.7181 14.9152L53.3542 18.6029L55.0455 19.6109C55.3977 19.8158 55.4018 20.1395 55.0455 20.3444L51.0035 22.6964C50.808 22.7954 50.592 22.847 50.3729 22.847C50.1538 22.847 49.9377 22.7954 49.7422 22.6964L48.0468 21.7171L41.6829 25.4049L40.27 24.5854L46.634 20.8976L45.5037 20.242C45.1474 20.0371 45.1474 19.7134 45.5037 19.5085L49.5456 17.1524C49.7405 17.0515 49.9568 16.9988 50.1763 16.9988C50.3958 16.9988 50.612 17.0515 50.807 17.1524L51.9413 17.808L58.3053 14.1202L59.7181 14.9152Z" stroke="white" stroke-miterlimit="10"/>
<path d="M48.051 21.7007V22.0162L41.6871 25.7163V25.4008L48.051 21.7007Z" stroke="white" stroke-miterlimit="10"/>
<path d="M58.6616 25.6219V25.9374L60.0745 25.122V24.8065L58.6616 25.6219Z" stroke="white" stroke-miterlimit="10"/>
<path d="M53.7064 21.1024L52.2936 21.9178L58.6616 25.622L60.0745 24.8066L53.7064 21.1024Z" stroke="white" stroke-miterlimit="10"/>
<path d="M52.2936 21.9178L52.2977 22.2375L58.6617 25.9375V25.622L52.2936 21.9178Z" stroke="white" stroke-miterlimit="10"/>
<path d="M45.5775 18.603C45.5366 18.5784 45.4506 18.603 45.4506 18.6317V19.9224C45.4506 19.9798 45.6021 19.9798 45.6021 19.9224V18.6317C45.6021 18.6317 45.598 18.6112 45.5775 18.603Z" stroke="white" stroke-miterlimit="10"/>
<path d="M47.9404 19.9675C47.8954 19.9429 47.8094 19.9675 47.8135 19.9962V21.2869C47.8135 21.3443 47.9609 21.3443 47.9609 21.2869V19.9962C47.9609 19.9962 47.9568 19.9757 47.9404 19.9675Z" stroke="white" stroke-miterlimit="10"/>
<path d="M50.3033 21.3319C50.2582 21.3073 50.1722 21.3319 50.1722 21.3605V22.6513C50.1722 22.7086 50.3238 22.7086 50.3238 22.6513V21.3605C50.3238 21.3605 50.3197 21.3401 50.3033 21.3319Z" stroke="white" stroke-miterlimit="10"/>
<path d="M50.3607 15.8371C50.3198 15.8126 50.2338 15.8371 50.2338 15.8699V17.1524C50.2338 17.2098 50.3853 17.2139 50.3853 17.1524V15.8699C50.3806 15.8568 50.372 15.8454 50.3607 15.8371V15.8371Z" stroke="white" stroke-miterlimit="10"/>
<path d="M52.7113 17.2016C52.6703 17.1771 52.5844 17.2016 52.5844 17.2344V18.521C52.5844 18.5784 52.7359 18.5825 52.7359 18.521V17.2344C52.7312 17.2213 52.7226 17.2099 52.7113 17.2016V17.2016Z" stroke="white" stroke-miterlimit="10"/>
<path d="M55.0865 18.5661C55.0414 18.5416 54.9595 18.5661 54.9595 18.5989V19.8855C54.9595 19.9429 55.107 19.947 55.107 19.8855V18.5989C55.103 18.5864 55.096 18.5752 55.0865 18.5661V18.5661Z" stroke="white" stroke-miterlimit="10"/>
<path d="M52.6007 20.1968C52.6417 20.1681 52.7277 20.1968 52.7277 20.2255V21.381C52.7277 21.4384 52.5762 21.4384 52.5762 21.381V20.2255C52.5762 20.2255 52.5803 20.205 52.6007 20.1968Z" stroke="white" stroke-miterlimit="10"/>
<path d="M47.7561 17.1524C47.8012 17.1278 47.8872 17.1524 47.8831 17.1811V18.4718C47.8831 18.5292 47.7356 18.5292 47.7356 18.4718V17.2016C47.734 17.1923 47.735 17.1827 47.7386 17.174C47.7423 17.1653 47.7483 17.1578 47.7561 17.1524Z" stroke="white" stroke-miterlimit="10"/>
<path d="M50.3771 21.4835C50.1664 21.4866 49.9581 21.4373 49.771 21.3401L45.5284 18.8815C45.4631 18.8527 45.4064 18.8073 45.364 18.7498C45.3216 18.6923 45.295 18.6247 45.2868 18.5537C45.2957 18.4835 45.3226 18.4168 45.365 18.36C45.4073 18.3033 45.4636 18.2585 45.5284 18.23L49.5663 15.8822C49.7578 15.7893 49.9678 15.7411 50.1806 15.7411C50.3933 15.7411 50.6034 15.7893 50.7948 15.8822L55.0334 18.3407C55.1041 18.3603 55.1664 18.4027 55.2108 18.4611C55.2551 18.5196 55.2792 18.591 55.2792 18.6644C55.2792 18.7378 55.2551 18.8092 55.2108 18.8676C55.1664 18.9261 55.1041 18.9684 55.0334 18.9881L50.9914 21.3401C50.8019 21.4387 50.5907 21.488 50.3771 21.4835ZM45.5735 18.5742C45.5735 18.5742 45.6103 18.6029 45.6718 18.6439L49.9103 21.1024C50.0566 21.1674 50.215 21.2009 50.3751 21.2009C50.5352 21.2009 50.6935 21.1674 50.8399 21.1024L54.8818 18.7504C54.9213 18.7305 54.9552 18.7009 54.9801 18.6644C54.9801 18.6644 54.9515 18.6357 54.8778 18.5947L50.6392 16.1362C50.4936 16.0714 50.3359 16.0378 50.1765 16.0378C50.017 16.0378 49.8594 16.0714 49.7137 16.1362L45.6718 18.4882C45.6021 18.5292 45.5776 18.5619 45.5735 18.5742V18.5742Z" stroke="white" stroke-miterlimit="10"/>
<path d="M49.1813 4.06906L48.5588 3.70847L53.2519 1L53.8703 1.36058L49.1813 4.06906Z" stroke="white" stroke-miterlimit="10"/>
<path d="M49.1813 4.83929L48.5629 4.47871L48.5588 3.70837L49.1813 4.06896V4.83929Z" stroke="white" stroke-miterlimit="10"/>
<path d="M49.1813 4.06895L53.8703 1.36047V1.69647L49.1813 4.83928V4.06895Z" stroke="white" stroke-miterlimit="10"/>
<path d="M47.8914 3.24125L49.2387 2.45862L50.459 19.0168L49.1158 19.7994L47.8914 3.24125Z" stroke="white" stroke-miterlimit="10"/>
<path d="M47.1132 2.79062L48.4564 2.01208L49.2386 2.45872L47.8912 3.24135L47.1132 2.79062Z" stroke="white" stroke-miterlimit="10"/>
<path d="M47.8912 3.24126L49.1157 19.7994L47.1173 18.648L47.1132 2.79053L47.8912 3.24126Z" stroke="white" stroke-miterlimit="10"/>
<path d="M43.1203 7.90435L42.5019 7.54376V7.20776L43.1203 7.56835V7.90435Z" stroke="white" stroke-miterlimit="10"/>
<path d="M43.1203 7.56845L42.5019 7.20786L47.1909 4.49939L47.8093 4.85997L43.1203 7.56845Z" stroke="white" stroke-miterlimit="10"/>
<path d="M43.1204 7.90433V7.56834L47.8094 4.85986L47.8135 5.6302L43.1204 7.90433Z" stroke="white" stroke-miterlimit="10"/>
<path d="M52.4574 14.153V20.7541C52.4529 20.8082 52.4337 20.86 52.402 20.9041C52.3702 20.9481 52.3271 20.9827 52.2772 21.004C52.142 21.0748 51.9916 21.1117 51.839 21.1117C51.6864 21.1117 51.5361 21.0748 51.4008 21.004C51.3504 20.9818 51.3067 20.9466 51.2744 20.9019C51.242 20.8573 51.222 20.8049 51.2166 20.75V14.153C51.222 14.2078 51.242 14.2603 51.2744 14.3049C51.3067 14.3495 51.3504 14.3848 51.4008 14.407C51.5367 14.4758 51.6868 14.5116 51.839 14.5116C51.9913 14.5116 52.1414 14.4758 52.2772 14.407C52.3271 14.3846 52.3702 14.3492 52.4019 14.3045C52.4335 14.2598 52.4527 14.2075 52.4574 14.153Z" stroke="white" stroke-miterlimit="10"/>
<path d="M52.2731 13.8989C52.3252 13.9179 52.3702 13.9525 52.4019 13.9979C52.4337 14.0434 52.4508 14.0975 52.4508 14.153C52.4508 14.2084 52.4337 14.2625 52.4019 14.308C52.3702 14.3534 52.3252 14.388 52.2731 14.407C52.1373 14.4758 51.9872 14.5116 51.835 14.5116C51.6827 14.5116 51.5326 14.4758 51.3968 14.407C51.3427 14.39 51.2956 14.3562 51.2621 14.3105C51.2286 14.2648 51.2105 14.2096 51.2105 14.153C51.2105 14.0963 51.2286 14.0411 51.2621 13.9954C51.2956 13.9497 51.3427 13.9159 51.3968 13.8989C51.5326 13.8301 51.6827 13.7943 51.835 13.7943C51.9872 13.7943 52.1373 13.8301 52.2731 13.8989V13.8989Z" stroke="white" stroke-miterlimit="10"/>
<path d="M56.4953 12.9934V13.3458C56.1144 13.4728 55.7295 13.6121 55.3486 13.7555V13.4032C55.7295 13.2434 56.1144 13.104 56.4994 12.9934H56.4953Z" stroke="white" stroke-miterlimit="10"/>
<path d="M55.3445 13.4196V13.7719L52.5762 14.2923V13.9399L55.3445 13.4196Z" stroke="white" stroke-miterlimit="10"/>
<path d="M51.2575 14.3988V14.7512C51.193 14.7219 51.1371 14.6762 51.0955 14.6187C51.0538 14.5613 51.0278 14.494 51.02 14.4234V14.071C51.0278 14.1416 51.0538 14.2089 51.0955 14.2664C51.1371 14.3238 51.193 14.3695 51.2575 14.3988Z" stroke="white" stroke-miterlimit="10"/>
<path d="M51.2906 14.4113V14.7662C51.2639 14.6457 51.2528 14.5223 51.2576 14.3989L51.2906 14.4113Z" stroke="white" stroke-miterlimit="10"/>
<path d="M52.609 14.0793V14.4317C52.6038 14.4998 52.5806 14.5653 52.5417 14.6215C52.5029 14.6777 52.4498 14.7225 52.3879 14.7513C52.1436 14.8738 51.8655 14.9113 51.5975 14.8579V14.5096C51.866 14.5602 52.1436 14.5213 52.3879 14.399C52.45 14.3704 52.5034 14.3257 52.5423 14.2695C52.5812 14.2132 52.6042 14.1476 52.609 14.0793V14.0793Z" stroke="white" stroke-miterlimit="10"/>
<path d="M51.5974 14.5096V14.8579L50.7087 16.4683V16.1159L51.5974 14.5096Z" stroke="white" stroke-miterlimit="10"/>
<path d="M50.7088 16.1158V16.4682C50.4426 16.6936 50.1969 16.9149 49.9799 17.1361V16.7837C50.1969 16.5625 50.4426 16.3412 50.7129 16.1158H50.7088Z" stroke="white" stroke-miterlimit="10"/>
<path d="M51.5975 14.5095L50.7088 16.1157C50.4385 16.3411 50.1928 16.5624 49.9758 16.7836L51.2903 14.4112C50.9422 14.2186 50.9422 13.9276 51.2535 13.7433C51.4286 13.6544 51.6222 13.608 51.8186 13.608C52.015 13.608 52.2086 13.6544 52.3837 13.7433C52.3837 13.7637 56.4789 12.9934 56.4789 12.9934C56.094 13.1204 55.709 13.2597 55.3282 13.4032L52.5598 13.9235C52.5791 13.9659 52.5895 14.0117 52.5904 14.0582C52.5913 14.1046 52.5826 14.1508 52.565 14.1938C52.5473 14.2368 52.521 14.2758 52.4878 14.3082C52.4545 14.3407 52.4149 14.3659 52.3715 14.3825C52.1338 14.5069 51.8624 14.5514 51.5975 14.5095V14.5095Z" stroke="white" stroke-miterlimit="10"/>
<path d="M52.4574 11.3708V14.0424C52.4527 14.097 52.4335 14.1493 52.4019 14.194C52.3702 14.2387 52.3271 14.2741 52.2772 14.2965C52.1414 14.3653 51.9913 14.4011 51.839 14.4011C51.6868 14.4011 51.5367 14.3653 51.4008 14.2965C51.3501 14.2736 51.3063 14.2376 51.2739 14.1923C51.2415 14.1469 51.2218 14.0938 51.2166 14.0383V11.3708C51.222 11.4257 51.242 11.4782 51.2744 11.5228C51.3067 11.5674 51.3504 11.6027 51.4008 11.6249C51.5367 11.6937 51.6868 11.7295 51.839 11.7295C51.9913 11.7295 52.1414 11.6937 52.2772 11.6249C52.3271 11.6025 52.3702 11.5671 52.4019 11.5224C52.4335 11.4777 52.4527 11.4254 52.4574 11.3708V11.3708Z" stroke="white" stroke-miterlimit="10"/>
<path d="M52.2731 11.1167C52.3252 11.1357 52.3702 11.1703 52.4019 11.2157C52.4337 11.2612 52.4508 11.3153 52.4508 11.3707C52.4508 11.4262 52.4337 11.4803 52.4019 11.5258C52.3702 11.5712 52.3252 11.6058 52.2731 11.6248C52.1373 11.6936 51.9872 11.7294 51.835 11.7294C51.6827 11.7294 51.5326 11.6936 51.3968 11.6248C51.3427 11.6078 51.2956 11.574 51.2621 11.5283C51.2286 11.4826 51.2105 11.4274 51.2105 11.3707C51.2105 11.3141 51.2286 11.2589 51.2621 11.2132C51.2956 11.1675 51.3427 11.1337 51.3968 11.1167C51.5326 11.0479 51.6827 11.0121 51.835 11.0121C51.9872 11.0121 52.1373 11.0479 52.2731 11.1167V11.1167Z" stroke="white" stroke-miterlimit="10"/>
<path d="M56.4953 9.87109V10.2235C56.1144 10.3505 55.7295 10.4898 55.3486 10.6332V10.2808C55.7295 10.121 56.1144 9.98173 56.4994 9.87109H56.4953Z" stroke="white" stroke-miterlimit="10"/>
<path d="M55.3445 10.2972V10.6496L52.5762 11.17V10.8176L55.3445 10.2972Z" stroke="white" stroke-miterlimit="10"/>
<path d="M51.2575 11.2765V11.6289C51.193 11.5995 51.1371 11.5539 51.0955 11.4964C51.0538 11.439 51.0278 11.3717 51.02 11.3011V10.9487C51.0278 11.0193 51.0538 11.0866 51.0955 11.144C51.1371 11.2015 51.193 11.2472 51.2575 11.2765V11.2765Z" stroke="white" stroke-miterlimit="10"/>
<path d="M51.2906 11.2889V11.6438C51.2639 11.5233 51.2528 11.3998 51.2576 11.2765L51.2906 11.2889Z" stroke="white" stroke-miterlimit="10"/>
<path d="M52.609 10.9568V11.3092C52.6038 11.3773 52.5806 11.4428 52.5417 11.4989C52.5029 11.5551 52.4498 11.5999 52.3879 11.6288C52.1436 11.7512 51.8655 11.7887 51.5975 11.7353V11.387C51.866 11.4392 52.1441 11.4003 52.3879 11.2764C52.4506 11.2486 52.5044 11.2041 52.5434 11.1477C52.5824 11.0913 52.6051 11.0253 52.609 10.9568V10.9568Z" stroke="white" stroke-miterlimit="10"/>
<path d="M51.5974 11.3872V11.7355L50.7087 13.3458V12.9934L51.5974 11.3872Z" stroke="white" stroke-miterlimit="10"/>
<path d="M50.7088 12.9933V13.3457C50.4426 13.571 50.1969 13.7923 49.9799 14.0136V13.6612C50.1969 13.4399 50.4426 13.2187 50.7129 12.9933H50.7088Z" stroke="white" stroke-miterlimit="10"/>
<path d="M51.5975 11.3872L50.7088 12.9934C50.4385 13.2188 50.1928 13.44 49.9758 13.6613L51.2903 11.2888C50.9422 11.0963 50.9422 10.8053 51.2535 10.6209C51.4286 10.532 51.6222 10.4857 51.8186 10.4857C52.015 10.4857 52.2086 10.532 52.3837 10.6209C52.3837 10.6414 56.4789 9.87109 56.4789 9.87109C56.094 9.99812 55.709 10.1374 55.3282 10.2808L52.5598 10.8012C52.5791 10.8435 52.5895 10.8894 52.5904 10.9358C52.5913 10.9823 52.5826 11.0285 52.565 11.0715C52.5473 11.1145 52.521 11.1535 52.4878 11.1859C52.4545 11.2183 52.4149 11.2436 52.3715 11.2602C52.1343 11.386 51.8624 11.4306 51.5975 11.3872V11.3872Z" stroke="white" stroke-miterlimit="10"/>
<path d="M49.0256 14.911C49.5334 13.817 50.9626 12.5304 52.9529 11.3749C54.8314 10.2572 56.8932 9.48166 59.0424 9.08435V12.7721C56.8919 13.1671 54.8286 13.9413 52.9488 15.0586C50.9585 16.2141 49.5293 17.5171 49.0256 18.5947V14.911Z" stroke="white" stroke-miterlimit="10"/>
<path d="M49.0296 14.9111L49.0214 18.6071L48.7184 18.562L48.7307 14.8619L49.0296 14.9111Z" stroke="white" stroke-miterlimit="10"/>
<path d="M58.9646 8.91223L59.0465 9.08433C56.8973 9.48164 54.8355 10.2572 52.957 11.3749C50.9667 12.5304 49.5375 13.8334 49.0297 14.911L48.7307 14.866C49.2426 13.7391 50.7046 12.4074 52.7317 11.2437C54.6541 10.1015 56.7648 9.3119 58.9646 8.91223V8.91223Z" stroke="white" stroke-miterlimit="10"/>
<path d="M50.3771 21.4837C50.1664 21.4868 49.9581 21.4375 49.771 21.3402L45.5284 18.8817C45.4631 18.8529 45.4064 18.8075 45.364 18.75C45.3216 18.6925 45.295 18.6249 45.2868 18.5539C45.2957 18.4837 45.3226 18.4169 45.365 18.3602C45.4073 18.3035 45.4636 18.2587 45.5284 18.2302C45.5613 18.2147 45.5988 18.2123 45.6333 18.2234C45.6679 18.2346 45.697 18.2584 45.7147 18.2901C45.7323 18.3219 45.7373 18.3592 45.7286 18.3944C45.7199 18.4297 45.6981 18.4603 45.6677 18.4802C45.6289 18.4995 45.5963 18.5293 45.5735 18.5662C45.5735 18.5662 45.6021 18.5908 45.6718 18.6359L49.9103 21.0944C50.0566 21.1593 50.215 21.1929 50.3751 21.1929C50.5352 21.1929 50.6935 21.1593 50.8399 21.0944L54.8819 18.7424C54.9213 18.7225 54.9552 18.6929 54.9801 18.6564C54.9801 18.6564 54.9515 18.6277 54.8778 18.5867C54.8452 18.5671 54.8217 18.5354 54.8125 18.4985C54.8033 18.4617 54.8091 18.4226 54.8286 18.39C54.8379 18.3735 54.8505 18.359 54.8655 18.3474C54.8806 18.3359 54.8979 18.3276 54.9163 18.323C54.9347 18.3184 54.9539 18.3176 54.9726 18.3207C54.9913 18.3237 55.0092 18.3306 55.0252 18.3408C55.0959 18.3605 55.1582 18.4028 55.2026 18.4613C55.247 18.5197 55.271 18.5911 55.271 18.6645C55.271 18.738 55.247 18.8094 55.2026 18.8678C55.1582 18.9263 55.0959 18.9686 55.0252 18.9883L50.9832 21.3402C50.7962 21.4375 50.5879 21.4868 50.3771 21.4837V21.4837Z" stroke="white" stroke-miterlimit="10"/>
<path d="M40.3479 42.8359L39.2094 42.1721L40.8762 33.6533L42.0146 34.3171L40.3479 42.8359Z" stroke="white" stroke-miterlimit="10"/>
<path d="M42.0146 34.317L40.8762 33.6532L47.1131 30.0515L48.2516 30.7112L42.0146 34.317Z" stroke="white" stroke-miterlimit="10"/>
<path d="M40.3477 42.8359L42.0145 34.3171L48.2514 30.7113V31.3956L43.4764 34.1573L41.9612 41.9058L40.3477 42.8359Z" stroke="white" stroke-miterlimit="10"/>
<path d="M51.8922 43.9093C51.4856 44.112 51.0366 44.2151 50.5823 44.2101C50.1281 44.2051 49.6815 44.0922 49.2794 43.8806C49.1336 43.8131 49.0083 43.7081 48.9162 43.5764C48.8242 43.4447 48.7686 43.2909 48.7552 43.1307V44.3067C48.7686 44.4669 48.8242 44.6207 48.9162 44.7524C49.0083 44.8841 49.1336 44.9891 49.2794 45.0566C49.6818 45.2675 50.1286 45.3798 50.5828 45.384C51.0371 45.3883 51.4859 45.2845 51.8922 45.0812C52.045 45.0162 52.1775 44.911 52.2755 44.7768C52.3736 44.6427 52.4336 44.4845 52.4491 44.319V43.143C52.433 43.3088 52.3729 43.4673 52.2749 43.602C52.177 43.7368 52.0449 43.8428 51.8922 43.9093V43.9093Z" stroke="white" stroke-miterlimit="10"/>
<path d="M51.9414 42.3933C51.539 42.1823 51.0923 42.0701 50.638 42.0658C50.1837 42.0615 49.735 42.1653 49.3287 42.3687C48.5956 42.7784 48.5792 43.4545 49.2918 43.8807C49.6939 44.0922 50.1404 44.2052 50.5947 44.2102C51.049 44.2152 51.4979 44.1121 51.9045 43.9093C52.6335 43.4955 52.6499 42.8194 51.9414 42.3933Z" stroke="white" stroke-miterlimit="10"/>
<path d="M51.5933 40.8566C51.317 40.688 51.0014 40.5945 50.6779 40.5853C50.3543 40.5762 50.034 40.6517 49.7485 40.8044C49.4631 40.9572 49.2224 41.1818 49.0504 41.4562C48.8784 41.7305 48.7809 42.045 48.7676 42.3686V42.8562C48.7817 43.0157 48.8376 43.1686 48.9296 43.2996C49.0217 43.4305 49.1466 43.5348 49.2918 43.602C49.6939 43.8136 50.1405 43.9265 50.5947 43.9315C51.049 43.9365 51.4979 43.8334 51.9046 43.6307C52.0577 43.565 52.1904 43.4591 52.2884 43.3242C52.3864 43.1894 52.4462 43.0305 52.4615 42.8644V42.3809C52.4605 42.0735 52.38 41.7716 52.2278 41.5045C52.0757 41.2374 51.8571 41.0142 51.5933 40.8566V40.8566Z" stroke="white" stroke-miterlimit="10"/>
<path d="M50.727 41.0504C50.6943 41.0667 50.6583 41.0752 50.6218 41.0752C50.5853 41.0752 50.5493 41.0667 50.5166 41.0504C50.4589 41.0132 50.4589 40.9596 50.5166 40.9266C50.5497 40.9092 50.5865 40.9001 50.6239 40.9001C50.6612 40.9001 50.698 40.9092 50.7311 40.9266C50.7847 40.9637 50.7847 41.0174 50.727 41.0504Z" stroke="white" stroke-miterlimit="10"/>
<path d="M63.7233 37.0788C63.3171 37.2821 62.8683 37.3859 62.414 37.3816C61.9598 37.3774 61.513 37.2651 61.1106 37.0542C60.9648 36.9867 60.8395 36.8817 60.7474 36.75C60.6553 36.6183 60.5998 36.4645 60.5864 36.3043V37.4803C60.6013 37.6395 60.6575 37.7921 60.7494 37.9229C60.8414 38.0537 60.9659 38.1582 61.1106 38.2261C61.5127 38.4377 61.9593 38.5506 62.4135 38.5556C62.8678 38.5606 63.3167 38.4575 63.7233 38.2547C63.877 38.1893 64.0103 38.0835 64.109 37.9487C64.2077 37.8139 64.2683 37.6549 64.2844 37.4885V36.3125C64.2675 36.4786 64.2066 36.6372 64.1079 36.7719C64.0093 36.9066 63.8765 37.0125 63.7233 37.0788V37.0788Z" stroke="white" stroke-miterlimit="10"/>
<path d="M63.7684 35.5667C63.3663 35.3552 62.9198 35.2422 62.4655 35.2372C62.0112 35.2322 61.5623 35.3354 61.1557 35.5381C60.4226 35.9478 60.4063 36.628 61.1188 37.0541C61.5212 37.2651 61.968 37.3773 62.4222 37.3816C62.8765 37.3859 63.3253 37.2821 63.7316 37.0787C64.4564 36.669 64.4728 36.0011 63.7684 35.5667Z" stroke="white" stroke-miterlimit="10"/>
<path d="M63.4162 34.026C63.1393 33.8585 62.8236 33.766 62.5002 33.7577C62.1768 33.7494 61.8567 33.8254 61.5716 33.9784C61.2864 34.1314 61.046 34.356 60.874 34.6302C60.702 34.9044 60.6043 35.2187 60.5905 35.5421V36.0256C60.6047 36.1856 60.6606 36.339 60.7526 36.4706C60.8445 36.6021 60.9694 36.7073 61.1147 36.7755C61.5171 36.9864 61.9638 37.0986 62.4181 37.1029C62.8724 37.1072 63.3211 37.0034 63.7274 36.8C63.8808 36.7353 64.0139 36.6303 64.1126 36.4961C64.2114 36.362 64.2721 36.2037 64.2885 36.0379V35.5503C64.2862 35.2427 64.2047 34.9408 64.052 34.6738C63.8992 34.4068 63.6802 34.1837 63.4162 34.026V34.026Z" stroke="white" stroke-miterlimit="10"/>
<path d="M62.5417 34.2238C62.5093 34.2411 62.4732 34.2502 62.4365 34.2502C62.3998 34.2502 62.3637 34.2411 62.3313 34.2238C62.2736 34.1907 62.2736 34.1371 62.3313 34.1041C62.364 34.0877 62.4 34.0792 62.4365 34.0792C62.473 34.0792 62.509 34.0877 62.5417 34.1041C62.6077 34.1371 62.6035 34.1907 62.5417 34.2238Z" stroke="white" stroke-miterlimit="10"/>
<path d="M79.5266 45.6959L77.9377 46.6178C77.7616 46.7162 77.6224 46.6588 77.6224 46.4826V45.1345C77.6315 45.0327 77.6648 44.9345 77.7197 44.8482C77.7746 44.7619 77.8493 44.6901 77.9377 44.6387L79.5266 43.7168C79.7027 43.6184 79.842 43.6758 79.842 43.852V45.2001C79.8329 45.3019 79.7995 45.4001 79.7446 45.4864C79.6898 45.5726 79.615 45.6445 79.5266 45.6959V45.6959Z" stroke="white" stroke-miterlimit="10"/>
<path d="M79.6291 43.7003C79.6496 43.7372 79.6496 45.0894 79.6496 45.0894C79.6386 45.1907 79.6044 45.2881 79.5497 45.3741C79.4951 45.4601 79.4213 45.5323 79.3343 45.5852L77.7412 46.503C77.7044 46.5276 77.6757 46.503 77.6429 46.503C77.6675 46.6382 77.7822 46.6915 77.9378 46.6014L79.5267 45.6794C79.6151 45.628 79.6899 45.5562 79.7447 45.4699C79.7996 45.3837 79.833 45.2855 79.8421 45.1836V43.8355C79.8421 43.7167 79.7397 43.6757 79.6291 43.7003Z" stroke="white" stroke-miterlimit="10"/>
<path d="M74.6698 48.5067L73.0767 49.4246C72.9006 49.5229 72.7614 49.4655 72.7614 49.2934V47.9412C72.7712 47.8396 72.8048 47.7416 72.8596 47.6555C72.9144 47.5693 72.9888 47.4973 73.0767 47.4454L74.6698 46.5235C74.8418 46.4252 74.981 46.4866 74.981 46.6587V48.0068C74.9714 48.1086 74.9383 48.2067 74.8842 48.2934C74.8302 48.3802 74.7568 48.4532 74.6698 48.5067V48.5067Z" stroke="white" stroke-miterlimit="10"/>
<path d="M74.7681 46.5071C74.7681 46.5481 74.7681 47.8962 74.7681 47.8962C74.759 47.998 74.7256 48.0962 74.6707 48.1825C74.6158 48.2688 74.5411 48.3406 74.4527 48.392L72.8638 49.3139C72.8228 49.3344 72.7942 49.3139 72.7614 49.3139C72.786 49.4451 72.9006 49.4983 73.0563 49.4082L74.6493 48.4903C74.7363 48.4368 74.8098 48.3638 74.8638 48.2771C74.9178 48.1903 74.9509 48.0922 74.9605 47.9904V46.6546C74.981 46.5235 74.8868 46.4866 74.7681 46.5071Z" stroke="white" stroke-miterlimit="10"/>
<path d="M69.8087 51.3135L68.2157 52.2313C68.0437 52.3338 67.9003 52.2723 67.9003 52.1002V50.7521C67.9113 50.6508 67.9455 50.5534 68.0002 50.4674C68.0549 50.3814 68.1286 50.3092 68.2157 50.2563L69.8087 49.3385C69.9807 49.236 70.1199 49.2975 70.1199 49.4696V50.8218C70.1091 50.9221 70.0754 51.0186 70.0214 51.1038C69.9675 51.1891 69.8947 51.2608 69.8087 51.3135V51.3135Z" stroke="white" stroke-miterlimit="10"/>
<path d="M69.9112 49.318C69.9112 49.3549 69.9112 50.703 69.9112 50.703C69.9022 50.8048 69.8688 50.903 69.8139 50.9893C69.759 51.0756 69.6843 51.1474 69.5959 51.1988L68.007 52.1207C67.966 52.1207 67.9415 52.1207 67.9046 52.1207C67.9333 52.2518 68.0438 52.3051 68.1995 52.215L69.7925 51.2971C69.879 51.244 69.9521 51.1717 70.0061 51.0857C70.0601 50.9997 70.0935 50.9024 70.1037 50.8013V49.4491C70.1201 49.3303 70.0259 49.2934 69.9112 49.318Z" stroke="white" stroke-miterlimit="10"/>
<path d="M64.9478 54.1204L63.3589 55.0383C63.1869 55.1407 63.0436 55.0793 63.0436 54.9072V53.555C63.0546 53.4537 63.0887 53.3562 63.1434 53.2703C63.1981 53.1843 63.2718 53.1121 63.3589 53.0592L64.9519 52.1413C65.1239 52.0389 65.2673 52.1004 65.2673 52.2725V53.6205C65.2571 53.7231 65.2228 53.8219 65.1673 53.9087C65.1118 53.9956 65.0366 54.0681 64.9478 54.1204Z" stroke="white" stroke-miterlimit="10"/>
<path d="M65.046 52.1249C65.046 52.1618 65.046 53.514 65.046 53.514C65.0359 53.6156 65.0022 53.7133 64.9474 53.7995C64.8926 53.8856 64.8184 53.9576 64.7307 54.0098L63.1417 54.9276C63.1008 54.9522 63.0762 54.9276 63.0394 54.9276C63.068 55.0587 63.1786 55.112 63.3342 55.0219L64.9273 54.104C65.0147 54.0516 65.0888 53.9795 65.1435 53.8934C65.1983 53.8074 65.2322 53.7097 65.2426 53.6082V52.256C65.2631 52.1413 65.1648 52.1003 65.046 52.1249Z" stroke="white" stroke-miterlimit="10"/>
<path d="M60.0827 56.9273L58.4896 57.8493C58.3177 57.9476 58.1743 57.8902 58.1743 57.714V56.3659C58.1844 56.2644 58.2182 56.1666 58.2729 56.0805C58.3277 55.9943 58.4019 55.9223 58.4896 55.8702L60.0827 54.9482C60.2547 54.8499 60.398 54.9072 60.398 55.0834V56.4315C60.3879 56.5331 60.3542 56.6309 60.2994 56.717C60.2446 56.8031 60.1704 56.8752 60.0827 56.9273V56.9273Z" stroke="white" stroke-miterlimit="10"/>
<path d="M60.185 54.9317C60.2055 54.9686 60.2055 56.3208 60.2055 56.3208C60.1953 56.4218 60.1618 56.5192 60.1079 56.6052C60.0539 56.6912 59.9808 56.7635 59.8943 56.8166L58.3012 57.7181C58.2603 57.7427 58.2357 57.7181 58.1989 57.7181C58.2275 57.8492 58.3381 57.9025 58.4937 57.8164L60.0867 56.8945C60.1744 56.8423 60.2487 56.7703 60.3035 56.6842C60.3582 56.598 60.392 56.5002 60.4021 56.3987V55.0506C60.4021 54.9481 60.3038 54.9072 60.185 54.9317Z" stroke="white" stroke-miterlimit="10"/>
<path d="M55.2258 59.7382L53.6328 60.656C53.4608 60.7544 53.3215 60.697 53.3215 60.5208V59.1727C53.3312 59.0715 53.3643 58.974 53.4184 58.8879C53.4724 58.8018 53.5458 58.7295 53.6328 58.6769L55.2258 57.755C55.3978 57.6566 55.5411 57.714 55.5411 57.8902V59.2383C55.5307 59.3403 55.4969 59.4386 55.4422 59.5253C55.3874 59.612 55.3134 59.6849 55.2258 59.7382V59.7382Z" stroke="white" stroke-miterlimit="10"/>
<path d="M55.3281 57.7385C55.3281 57.7795 55.3281 59.1276 55.3281 59.1276C55.3184 59.2288 55.2853 59.3263 55.2312 59.4124C55.1772 59.4985 55.1038 59.5708 55.0168 59.6234L53.4238 60.5453C53.3828 60.5453 53.3583 60.5453 53.3255 60.5453C53.3501 60.6764 53.4647 60.7297 53.6163 60.6396L55.2093 59.7217C55.2969 59.6684 55.3709 59.5956 55.4256 59.5088C55.4804 59.4221 55.5142 59.3239 55.5246 59.2218V57.8737C55.541 57.7549 55.4468 57.718 55.3281 57.7385Z" stroke="white" stroke-miterlimit="10"/>
<path d="M50.3648 62.5449L48.7717 63.4546C48.5997 63.557 48.4605 63.4955 48.4605 63.3234V61.9712C48.4707 61.8702 48.5042 61.7729 48.5581 61.6869C48.6121 61.6009 48.6852 61.5285 48.7717 61.4754L50.3648 60.5576C50.5409 60.4552 50.6801 60.5166 50.6801 60.6887V62.0409C50.6713 62.1439 50.6381 62.2434 50.5833 62.331C50.5284 62.4186 50.4535 62.492 50.3648 62.5449V62.5449Z" stroke="white" stroke-miterlimit="10"/>
<path d="M50.4672 60.5493C50.4672 60.5862 50.4672 61.9343 50.4672 61.9343C50.4571 62.0359 50.4233 62.1337 50.3685 62.2198C50.3138 62.3059 50.2395 62.378 50.1518 62.4301L48.5588 63.352C48.5219 63.3725 48.4933 63.352 48.4605 63.352C48.4851 63.4832 48.5997 63.5364 48.7513 63.4463L50.3443 62.5284C50.432 62.4763 50.5062 62.4043 50.561 62.3181C50.6158 62.232 50.6496 62.1342 50.6596 62.0326V60.6805C50.6637 60.5616 50.5859 60.5247 50.4672 60.5493Z" stroke="white" stroke-miterlimit="10"/>
<path d="M45.5038 65.3516L43.9148 66.2695C43.7387 66.3719 43.5995 66.3105 43.5995 66.1384V64.7862C43.6096 64.6846 43.6433 64.5868 43.6981 64.5007C43.7529 64.4146 43.8271 64.3425 43.9148 64.2904L45.5038 63.3725C45.6798 63.2701 45.8191 63.3316 45.8191 63.5037V64.8558C45.809 64.9574 45.7752 65.0552 45.7205 65.1413C45.6657 65.2275 45.5915 65.2995 45.5038 65.3516V65.3516Z" stroke="white" stroke-miterlimit="10"/>
<path d="M45.6061 63.3562C45.6061 63.3931 45.6061 64.7453 45.6061 64.7453C45.5951 64.8466 45.561 64.944 45.5063 65.03C45.4516 65.116 45.3779 65.1882 45.2908 65.2411L43.7019 66.1589C43.665 66.1835 43.6363 66.1589 43.6036 66.1589C43.6281 66.2901 43.7428 66.3433 43.8984 66.2532L45.4874 65.3353C45.5751 65.2832 45.6493 65.2112 45.7041 65.125C45.7589 65.0389 45.7926 64.9411 45.8027 64.8395V63.4874C45.8191 63.3726 45.7249 63.3316 45.6061 63.3562Z" stroke="white" stroke-miterlimit="10"/>
<path d="M79.6414 57.7181L78.0484 58.636C77.8764 58.7384 77.733 58.6769 77.733 58.5048V57.1526C77.7434 57.0511 77.7773 56.9535 77.8321 56.8674C77.8868 56.7813 77.9609 56.7092 78.0484 56.6568L79.6414 55.739C79.8134 55.6366 79.9567 55.698 79.9567 55.8701V57.2223C79.9457 57.3236 79.9116 57.421 79.8569 57.507C79.8022 57.593 79.7285 57.6652 79.6414 57.7181V57.7181Z" stroke="white" stroke-miterlimit="10"/>
<path d="M79.7396 55.7226C79.7601 55.7595 79.7601 57.1076 79.7601 57.1076C79.7511 57.2089 79.7182 57.3067 79.6641 57.3929C79.61 57.4791 79.5362 57.5512 79.4488 57.6034L77.8558 58.5376C77.8148 58.5581 77.7903 58.5376 77.7534 58.5376C77.7821 58.6687 77.8927 58.722 78.0483 58.6318L79.6413 57.714C79.7284 57.6611 79.8021 57.5889 79.8568 57.5029C79.9115 57.4169 79.9456 57.3195 79.9566 57.2182V55.866C79.9566 55.7349 79.8584 55.698 79.7396 55.7226Z" stroke="white" stroke-miterlimit="10"/>
<path d="M74.7802 60.5249L73.1872 61.4427C73.0152 61.5451 72.876 61.4837 72.876 61.3116V59.9594C72.8862 59.8584 72.9196 59.7611 72.9736 59.6751C73.0276 59.5891 73.1007 59.5167 73.1872 59.4636L74.7802 58.5458C74.9522 58.4433 75.0956 58.5048 75.0956 58.6769V60.0291C75.0846 60.1304 75.0504 60.2278 74.9957 60.3138C74.941 60.3998 74.8673 60.472 74.7802 60.5249Z" stroke="white" stroke-miterlimit="10"/>
<path d="M74.8787 58.5375C74.8992 58.5743 74.8992 59.9224 74.8992 59.9224C74.8895 60.0242 74.8564 60.1223 74.8024 60.2091C74.7484 60.2958 74.675 60.3688 74.5879 60.4223L72.9949 61.3402C72.9539 61.3648 72.9294 61.3402 72.8966 61.3402C72.9212 61.4713 73.0358 61.5246 73.1874 61.4344L74.7804 60.5166C74.8675 60.4637 74.9412 60.3915 74.9959 60.3055C75.0506 60.2195 75.0847 60.1221 75.0957 60.0208V58.6686C75.0957 58.5375 74.9974 58.5047 74.8787 58.5375Z" stroke="white" stroke-miterlimit="10"/>
<path d="M69.9111 63.3318L68.3263 64.2742C68.1543 64.3725 68.015 64.3152 68.015 64.139V62.7909C68.0246 62.6891 68.0578 62.591 68.1118 62.5042C68.1658 62.4175 68.2392 62.3445 68.3263 62.291L69.9193 61.3731C70.0954 61.2748 70.2346 61.3322 70.2346 61.5084V62.8564C70.2209 62.9552 70.1846 63.0496 70.1285 63.132C70.0724 63.2145 69.998 63.2828 69.9111 63.3318V63.3318Z" stroke="white" stroke-miterlimit="10"/>
<path d="M70.0217 61.3363C70.0217 61.3732 70.0217 62.7254 70.0217 62.7254C70.0107 62.8267 69.9765 62.9241 69.9218 63.0101C69.8671 63.0961 69.7934 63.1683 69.7063 63.2212L68.1133 64.139C68.0764 64.1636 68.0478 64.139 68.015 64.139C68.0396 64.2702 68.1543 64.3234 68.3058 64.2374L69.9111 63.3318C69.999 63.2799 70.0734 63.208 70.1282 63.1218C70.183 63.0356 70.2167 62.9377 70.2264 62.836V61.4879C70.2346 61.3527 70.1404 61.3117 70.0217 61.3363Z" stroke="white" stroke-miterlimit="10"/>
<path d="M65.0582 66.1385L63.4693 67.0604C63.2932 67.1588 63.1539 67.1014 63.1539 66.9252V65.5771C63.163 65.4753 63.1964 65.3771 63.2513 65.2908C63.3061 65.2046 63.3809 65.1327 63.4693 65.0813L65.0582 64.1594C65.2343 64.061 65.3735 64.1184 65.3735 64.2946V65.6427C65.3644 65.7445 65.3311 65.8427 65.2762 65.929C65.2213 66.0153 65.1466 66.0871 65.0582 66.1385V66.1385Z" stroke="white" stroke-miterlimit="10"/>
<path d="M65.1606 64.1431C65.1606 64.1799 65.1606 65.5321 65.1606 65.5321C65.1502 65.6336 65.1163 65.7313 65.0615 65.8174C65.0068 65.9034 64.9327 65.9755 64.8452 66.0279L63.2522 66.9458C63.2154 66.9704 63.1867 66.9458 63.1539 66.9458C63.1785 67.081 63.2932 67.1343 63.4488 67.0441L65.0377 66.1222C65.1261 66.0708 65.2008 65.9989 65.2557 65.9127C65.3106 65.8264 65.344 65.7282 65.353 65.6264V64.2783C65.3735 64.1594 65.2793 64.1226 65.1606 64.1431Z" stroke="white" stroke-miterlimit="10"/>
<path d="M60.1974 68.9494L58.6085 69.8672C58.4324 69.9697 58.2932 69.9082 58.2932 69.7361V68.3716C58.3029 68.27 58.3365 68.172 58.3914 68.0859C58.4462 67.9997 58.5206 67.9277 58.6085 67.8758L60.1974 66.958C60.3735 66.8555 60.5127 66.917 60.5127 67.0891V68.4413C60.5046 68.545 60.4717 68.6453 60.4168 68.7337C60.3619 68.8221 60.2867 68.896 60.1974 68.9494V68.9494Z" stroke="white" stroke-miterlimit="10"/>
<path d="M60.2998 66.9539C60.3202 66.9908 60.3202 68.3388 60.3202 68.3388C60.3102 68.4404 60.2764 68.5382 60.2216 68.6243C60.1669 68.7105 60.0926 68.7825 60.0049 68.8346L58.4119 69.7566C58.375 69.7771 58.3464 69.7566 58.3136 69.7566C58.3382 69.8877 58.4528 69.941 58.6085 69.8508L60.1974 68.933C60.2851 68.8808 60.3593 68.8088 60.4141 68.7227C60.4689 68.6366 60.5027 68.5388 60.5127 68.4372V67.085C60.5127 66.9662 60.4185 66.9293 60.2998 66.9539Z" stroke="white" stroke-miterlimit="10"/>
<path d="M55.3363 71.7563L53.7473 72.6742C53.5712 72.7766 53.432 72.7151 53.432 72.543V71.1909C53.4421 71.0893 53.4759 70.9915 53.5306 70.9054C53.5854 70.8192 53.6596 70.7472 53.7473 70.695L55.3363 69.7772C55.5124 69.6748 55.6516 69.7362 55.6516 69.9083V71.2605C55.6415 71.3621 55.6078 71.4599 55.553 71.546C55.4982 71.6321 55.424 71.7042 55.3363 71.7563Z" stroke="white" stroke-miterlimit="10"/>
<path d="M55.4387 69.7606C55.4387 69.7975 55.4387 71.1456 55.4387 71.1456C55.4292 71.2479 55.3957 71.3465 55.3409 71.4334C55.2861 71.5203 55.2116 71.593 55.1233 71.6455L53.5344 72.5634C53.4934 72.5838 53.4648 72.5634 53.432 72.5634C53.4607 72.6945 53.5712 72.7477 53.7269 72.6576L55.3199 71.7397C55.4064 71.6867 55.4795 71.6143 55.5335 71.5283C55.5875 71.4423 55.6209 71.345 55.6311 71.2439V69.8918C55.6516 69.7729 55.5779 69.7361 55.4387 69.7606Z" stroke="white" stroke-miterlimit="10"/>
<path d="M23.66 58.0908V56.7386C23.66 56.5665 23.7992 56.5051 23.9753 56.6075L25.5642 57.5254C25.6519 57.5775 25.7262 57.6496 25.7809 57.7357C25.8357 57.8218 25.8695 57.9196 25.8796 58.0212V59.357C25.8796 59.5291 25.7403 59.5905 25.5642 59.4881L23.9753 58.5702C23.8897 58.5197 23.8167 58.4503 23.762 58.3671C23.7074 58.284 23.6725 58.1895 23.66 58.0908V58.0908Z" stroke="white" stroke-miterlimit="10"/>
<path d="M23.873 56.5912C23.873 56.6281 23.873 57.9762 23.873 57.9762C23.8824 58.0785 23.9159 58.1771 23.9707 58.264C24.0255 58.3508 24.1001 58.4235 24.1883 58.4761L25.7772 59.3939C25.8182 59.3939 25.8468 59.3939 25.8796 59.3939C25.855 59.525 25.7404 59.5783 25.5847 59.4882L23.9958 58.5703C23.9081 58.5182 23.8339 58.4461 23.7791 58.36C23.7243 58.2739 23.6905 58.1761 23.6805 58.0745V56.7223C23.66 56.6035 23.7542 56.5666 23.873 56.5912Z" stroke="white" stroke-miterlimit="10"/>
<path d="M28.0501 60.6275V59.2753C28.0501 59.1032 28.1934 59.0458 28.3654 59.1442L29.9585 60.062C30.0455 60.1155 30.1189 60.1885 30.1729 60.2753C30.227 60.362 30.2601 60.4601 30.2697 60.5619V61.91C30.2697 62.0821 30.1305 62.1436 29.9585 62.0411L28.3654 61.1233C28.2779 61.0709 28.2039 60.9988 28.1491 60.9127C28.0944 60.8266 28.0605 60.729 28.0501 60.6275V60.6275Z" stroke="white" stroke-miterlimit="10"/>
<path d="M28.2671 59.1276C28.2466 59.1645 28.2466 60.5166 28.2466 60.5166C28.2583 60.6141 28.2916 60.7077 28.344 60.7906C28.3964 60.8735 28.4667 60.9437 28.5497 60.9961L30.1427 61.9139C30.1837 61.9385 30.2082 61.9139 30.2451 61.9139C30.2164 62.045 30.1018 62.0983 29.9502 62.0081L28.3572 61.0903C28.2697 61.0379 28.1956 60.9658 28.1409 60.8797C28.0862 60.7937 28.0523 60.696 28.0419 60.5945V59.2423C28.0501 59.144 28.1402 59.103 28.2671 59.1276Z" stroke="white" stroke-miterlimit="10"/>
<path d="M32.4442 63.1637V61.8156C32.4442 61.6394 32.5834 61.582 32.7595 61.6804L34.3485 62.6023C34.4368 62.6537 34.5116 62.7255 34.5665 62.8118C34.6213 62.8981 34.6547 62.9963 34.6638 63.0981V64.4462C34.6638 64.6224 34.5246 64.6798 34.3485 64.5814L32.7595 63.6595C32.6712 63.6081 32.5964 63.5363 32.5416 63.45C32.4867 63.3637 32.4533 63.2655 32.4442 63.1637V63.1637Z" stroke="white" stroke-miterlimit="10"/>
<path d="M32.6449 61.6641C32.6449 61.701 32.6449 63.0532 32.6449 63.0532C32.6553 63.1546 32.6892 63.2523 32.7439 63.3384C32.7987 63.4245 32.8727 63.4966 32.9602 63.549L34.5532 64.4668C34.5901 64.4914 34.6188 64.4668 34.6515 64.4668C34.627 64.602 34.5123 64.6553 34.3567 64.5651L32.7677 63.6432C32.6794 63.5918 32.6046 63.52 32.5497 63.4337C32.4949 63.3474 32.4615 63.2492 32.4524 63.1474V61.8157C32.4442 61.6805 32.5384 61.6436 32.6449 61.6641Z" stroke="white" stroke-miterlimit="10"/>
<path d="M36.8343 65.7V64.352C36.8343 64.1799 36.9776 64.1184 37.1496 64.2167L38.7426 65.1387C38.8301 65.1911 38.9042 65.2632 38.9589 65.3492C39.0137 65.4353 39.0476 65.533 39.058 65.6345V66.9867C39.058 67.1588 38.9146 67.2161 38.7426 67.1178L37.1496 66.1999C37.062 66.1467 36.988 66.0738 36.9333 65.9871C36.8786 65.9003 36.8447 65.8021 36.8343 65.7V65.7Z" stroke="white" stroke-miterlimit="10"/>
<path d="M37.0513 64.2045C37.0309 64.2414 37.0309 65.5895 37.0309 65.5895C37.0399 65.6913 37.0733 65.7895 37.1282 65.8758C37.1831 65.962 37.2578 66.0339 37.3462 66.0853L38.9351 67.0072C38.9761 67.0277 39.0006 67.0072 39.0375 67.0072C39.0088 67.1383 38.8983 67.1916 38.7426 67.1014L37.1496 66.2C37.062 66.1467 36.988 66.0738 36.9333 65.9871C36.8786 65.9004 36.8447 65.8021 36.8343 65.7001V64.352C36.8343 64.2168 36.9326 64.1799 37.0513 64.2045Z" stroke="white" stroke-miterlimit="10"/>
<path d="M71.7214 39.2464L70.1283 40.1643C69.9563 40.2667 69.813 40.2053 69.813 40.0332V38.6851C69.8234 38.583 69.8573 38.4848 69.912 38.3981C69.9667 38.3113 70.0407 38.2385 70.1283 38.1852L71.7214 37.2673C71.8934 37.169 72.0326 37.2263 72.0326 37.3984V38.7506C72.023 38.8518 71.9898 38.9494 71.9358 39.0355C71.8817 39.1216 71.8083 39.1938 71.7214 39.2464Z" stroke="white" stroke-miterlimit="10"/>
<path d="M71.8195 37.2507C71.84 37.2876 71.84 38.6398 71.84 38.6398C71.83 38.7414 71.7962 38.8392 71.7414 38.9253C71.6866 39.0114 71.6124 39.0835 71.5247 39.1356L69.9358 40.0535C69.8948 40.078 69.8702 40.0535 69.8334 40.0535C69.862 40.1846 69.9726 40.2378 70.1282 40.1477L71.7213 39.2298C71.8082 39.1772 71.8816 39.105 71.9357 39.0189C71.9897 38.9328 72.0229 38.8353 72.0325 38.734V37.3819C72.0325 37.2671 71.9588 37.2303 71.8195 37.2507Z" stroke="white" stroke-miterlimit="10"/>
<path d="M66.8603 42.0532L65.2672 42.9669C65.0952 43.0653 64.9519 43.0079 64.9519 42.8317V41.4918C64.962 41.3902 64.9957 41.2924 65.0505 41.2063C65.1053 41.1202 65.1795 41.0482 65.2672 40.996L66.8603 40.0741C67.0323 39.9757 67.1756 40.0331 67.1756 40.2093V41.5574C67.1655 41.6589 67.1317 41.7567 67.077 41.8429C67.0222 41.929 66.948 42.001 66.8603 42.0532Z" stroke="white" stroke-miterlimit="10"/>
<path d="M66.9586 40.0576C66.9791 40.0945 66.9791 41.4467 66.9791 41.4467C66.9693 41.5484 66.9357 41.6463 66.8809 41.7325C66.8261 41.8186 66.7517 41.8906 66.6637 41.9425L65.0748 42.8604C65.0338 42.8849 65.0093 42.8604 64.9724 42.8604C65.0011 42.9956 65.1116 43.0488 65.2673 42.9587L66.8603 42.0368C66.948 41.9846 67.0222 41.9126 67.077 41.8264C67.1318 41.7403 67.1656 41.6425 67.1756 41.5409V40.2092C67.1756 40.074 67.0773 40.0331 66.9586 40.0576Z" stroke="white" stroke-miterlimit="10"/>
<path d="M61.9992 44.8641L60.4062 45.7819C60.2342 45.8803 60.095 45.8229 60.095 45.6508V44.2986C60.1046 44.1974 60.1377 44.0999 60.1918 44.0138C60.2458 43.9277 60.3193 43.8554 60.4062 43.8028L61.9992 42.885C62.1712 42.7825 62.3146 42.844 62.3146 43.0161V44.3683C62.3036 44.4696 62.2694 44.567 62.2147 44.653C62.16 44.739 62.0863 44.8112 61.9992 44.8641V44.8641Z" stroke="white" stroke-miterlimit="10"/>
<path d="M62.0976 42.8685C62.118 42.9054 62.118 44.2535 62.118 44.2535C62.1091 44.3549 62.0762 44.4527 62.0221 44.5389C61.9679 44.6251 61.8942 44.6972 61.8068 44.7493L60.2138 45.6713C60.1728 45.6917 60.1482 45.6713 60.1114 45.6713C60.1401 45.8024 60.2547 45.8557 60.4062 45.7655L61.9993 44.8477C62.0869 44.7944 62.1609 44.7215 62.2156 44.6348C62.2703 44.548 62.3042 44.4498 62.3146 44.3478V42.9997C62.3146 42.8808 62.2163 42.844 62.0976 42.8685Z" stroke="white" stroke-miterlimit="10"/>
<path d="M57.1383 47.6709L55.5452 48.5887C55.3732 48.6911 55.234 48.6297 55.234 48.4576V47.1054C55.2442 47.0044 55.2777 46.9071 55.3316 46.8211C55.3856 46.7351 55.4587 46.6627 55.5452 46.6096L57.1383 45.6917C57.3103 45.5893 57.4536 45.6508 57.4536 45.8229V47.1751C57.4426 47.2764 57.4084 47.3738 57.3538 47.4598C57.2991 47.5458 57.2253 47.618 57.1383 47.6709V47.6709Z" stroke="white" stroke-miterlimit="10"/>
<path d="M57.2405 45.6754C57.2405 45.7122 57.2405 47.0603 57.2405 47.0603C57.2309 47.1621 57.1978 47.2602 57.1438 47.347C57.0897 47.4337 57.0163 47.5067 56.9293 47.5602L55.3363 48.4781C55.2953 48.4781 55.2707 48.4781 55.238 48.4781C55.2625 48.6092 55.3772 48.6625 55.5287 48.5723L57.1218 47.6545C57.2088 47.6016 57.2826 47.5294 57.3373 47.4434C57.3919 47.3574 57.4261 47.26 57.4371 47.1587V45.8352C57.4535 45.6877 57.3593 45.6508 57.2405 45.6754Z" stroke="white" stroke-miterlimit="10"/>
<path d="M52.2773 50.4777L50.6884 51.3956C50.5123 51.498 50.373 51.4365 50.373 51.2644V49.9327C50.3825 49.8304 50.416 49.7318 50.4708 49.6449C50.5256 49.5581 50.6001 49.4854 50.6884 49.4328L52.2773 48.515C52.4534 48.4126 52.5926 48.474 52.5926 48.6461V49.9983C52.5805 50.0971 52.5457 50.1917 52.491 50.2749C52.4363 50.358 52.3632 50.4274 52.2773 50.4777V50.4777Z" stroke="white" stroke-miterlimit="10"/>
<path d="M52.3797 48.4821C52.3797 48.519 52.3797 49.8711 52.3797 49.8711C52.3687 49.9725 52.3345 50.0699 52.2799 50.1559C52.2252 50.2418 52.1514 50.3141 52.0644 50.3669L50.4713 51.2848C50.4345 51.3094 50.4058 51.2848 50.373 51.2848C50.3976 51.4159 50.5123 51.4692 50.6679 51.379L52.2568 50.4612C52.3448 50.4093 52.4192 50.3373 52.474 50.2512C52.5288 50.165 52.5624 50.0671 52.5722 49.9654V48.6132C52.5926 48.4985 52.4985 48.4575 52.3797 48.4821Z" stroke="white" stroke-miterlimit="10"/>
<path d="M47.4162 53.2844L45.8273 54.2063C45.6512 54.3047 45.512 54.2473 45.512 54.0711V52.723C45.5211 52.6212 45.5544 52.523 45.6093 52.4367C45.6642 52.3504 45.7389 52.2786 45.8273 52.2272L47.4162 51.3053C47.5923 51.2069 47.7316 51.2643 47.7316 51.4405V52.8009C47.7206 52.9006 47.6863 52.9963 47.6316 53.0803C47.5768 53.1643 47.503 53.2342 47.4162 53.2844V53.2844Z" stroke="white" stroke-miterlimit="10"/>
<path d="M47.5186 51.2891C47.5391 51.3259 47.5391 52.6781 47.5391 52.6781C47.5287 52.7796 47.4948 52.8773 47.4401 52.9634C47.3853 53.0494 47.3113 53.1215 47.2238 53.1739L45.6308 54.0918C45.5939 54.1164 45.5652 54.0918 45.5325 54.0918C45.557 54.227 45.6717 54.2762 45.8273 54.1901L47.4163 53.2682C47.5046 53.2168 47.5794 53.145 47.6342 53.0587C47.6891 52.9724 47.7225 52.8742 47.7316 52.7724V51.4243C47.7316 51.3055 47.6374 51.2645 47.5186 51.2891Z" stroke="white" stroke-miterlimit="10"/>
<path d="M31.2075 48.0764V46.7242C31.2075 46.5521 31.3467 46.4907 31.5228 46.5931L33.1117 47.511C33.1994 47.5631 33.2737 47.6352 33.3284 47.7213C33.3832 47.8074 33.417 47.9052 33.4271 48.0068V49.359C33.4271 49.5311 33.2878 49.5925 33.1117 49.4901L31.5228 48.5722C31.4351 48.5201 31.3609 48.448 31.3061 48.3619C31.2513 48.2758 31.2175 48.178 31.2075 48.0764V48.0764Z" stroke="white" stroke-miterlimit="10"/>
<path d="M31.4162 46.5768C31.3957 46.6137 31.3957 47.9618 31.3957 47.9618C31.4061 48.0638 31.44 48.162 31.4947 48.2488C31.5494 48.3355 31.6235 48.4084 31.7111 48.4617L33.3041 49.3795C33.3409 49.3795 33.3696 49.3795 33.4024 49.3795C33.3778 49.5106 33.2631 49.5639 33.1075 49.4738L31.5186 48.5559C31.4309 48.5038 31.3566 48.4317 31.3019 48.3456C31.2471 48.2595 31.2133 48.1617 31.2032 48.0601V46.7079C31.2073 46.5891 31.3015 46.5522 31.4162 46.5768Z" stroke="white" stroke-miterlimit="10"/>
<path d="M35.6016 50.6129V49.2607C35.6016 49.0887 35.7409 49.0313 35.9129 49.1296L37.5059 50.0475C37.5935 50.1008 37.6675 50.1736 37.7222 50.2604C37.7769 50.3471 37.8108 50.4453 37.8212 50.5474V51.8955C37.8212 52.0676 37.6779 52.129 37.5059 52.0266L35.921 51.1087C35.8326 51.0571 35.7575 50.9852 35.702 50.8991C35.6465 50.8129 35.6121 50.7149 35.6016 50.6129Z" stroke="white" stroke-miterlimit="10"/>
<path d="M35.8146 49.1132C35.8146 49.15 35.8146 50.5022 35.8146 50.5022C35.8246 50.6038 35.8584 50.7016 35.9132 50.7877C35.968 50.8738 36.0422 50.9459 36.1299 50.998L37.7188 51.9159C37.7598 51.9405 37.7844 51.9159 37.8212 51.9159C37.7926 52.047 37.682 52.1003 37.5264 52.0101L35.921 51.1087C35.8341 51.0561 35.7607 50.9838 35.7066 50.8977C35.6526 50.8116 35.6194 50.7141 35.6098 50.6129V49.2607C35.6016 49.1132 35.6958 49.0886 35.8146 49.1132Z" stroke="white" stroke-miterlimit="10"/>
<path d="M39.9916 53.1493V51.8012C39.9916 51.625 40.1309 51.5676 40.307 51.666L41.9 52.5879C41.9874 52.64 42.0612 52.7122 42.1153 52.7983C42.1694 52.8845 42.2023 52.9823 42.2112 53.0837V54.44C42.2112 54.6162 42.072 54.6736 41.9 54.5752L40.307 53.6533C40.2175 53.6011 40.1421 53.528 40.0872 53.4402C40.0322 53.3524 39.9995 53.2526 39.9916 53.1493V53.1493Z" stroke="white" stroke-miterlimit="10"/>
<path d="M40.2046 51.6496C40.2046 51.6865 40.2046 53.0387 40.2046 53.0387C40.215 53.1402 40.2489 53.2378 40.3036 53.3239C40.3584 53.41 40.4324 53.4821 40.5199 53.5345L42.0925 54.44C42.1293 54.4646 42.158 54.44 42.1908 54.44C42.1662 54.5712 42.0515 54.6285 41.9 54.5384L40.307 53.6164C40.2186 53.5651 40.1439 53.4932 40.089 53.4069C40.0341 53.3207 40.0007 53.2225 39.9916 53.1206V51.7725C39.9916 51.666 40.0858 51.625 40.2046 51.6496Z" stroke="white" stroke-miterlimit="10"/>
<path d="M23.66 64.8806V63.5284C23.66 63.3563 23.7992 63.2949 23.9753 63.3973L25.5642 64.3152C25.6519 64.3673 25.7262 64.4394 25.7809 64.5255C25.8357 64.6116 25.8695 64.7094 25.8796 64.811V66.1632C25.8796 66.3353 25.7403 66.3967 25.5642 66.2943L23.9753 65.3764C23.8876 65.3243 23.8134 65.2522 23.7586 65.1661C23.7038 65.08 23.67 64.9822 23.66 64.8806V64.8806Z" stroke="white" stroke-miterlimit="10"/>
<path d="M23.873 63.3808C23.873 63.4176 23.873 64.7698 23.873 64.7698C23.883 64.8714 23.9168 64.9692 23.9716 65.0553C24.0264 65.1414 24.1006 65.2135 24.1883 65.2656L25.7772 66.1835C25.8182 66.2081 25.8468 66.1835 25.8796 66.1835C25.855 66.3146 25.7404 66.3679 25.5847 66.2777L23.9958 65.3599C23.9081 65.3077 23.8339 65.2357 23.7791 65.1496C23.7243 65.0634 23.6905 64.9656 23.6805 64.8641V63.5119C23.66 63.393 23.7542 63.3562 23.873 63.3808Z" stroke="white" stroke-miterlimit="10"/>
<path d="M28.0501 67.4169V66.0688C28.0501 65.8926 28.1934 65.8352 28.3654 65.9336L29.9585 66.8514C30.0455 66.9049 30.1189 66.9779 30.1729 67.0647C30.227 67.1514 30.2601 67.2495 30.2697 67.3513V68.6994C30.2697 68.8756 30.1305 68.933 29.9585 68.8346L28.3654 67.9127C28.2779 67.8603 28.2039 67.7882 28.1491 67.7021C28.0944 67.616 28.0605 67.5184 28.0501 67.4169V67.4169Z" stroke="white" stroke-miterlimit="10"/>
<path d="M28.2672 65.9131C28.2467 65.95 28.2467 67.3022 28.2467 67.3022C28.2569 67.4032 28.2903 67.5005 28.3443 67.5865C28.3983 67.6725 28.4714 67.7449 28.5579 67.798L30.1509 68.7158C30.1919 68.7404 30.2165 68.7158 30.2533 68.7158C30.2247 68.8469 30.11 68.9002 29.9585 68.8141L28.3654 67.8922C28.2779 67.8398 28.2039 67.7677 28.1491 67.6816C28.0944 67.5956 28.0605 67.4979 28.0501 67.3964V66.0483C28.0501 65.9336 28.1402 65.9131 28.2672 65.9131Z" stroke="white" stroke-miterlimit="10"/>
<path d="M32.4442 69.9534V68.6053C32.4442 68.4291 32.5834 68.3717 32.7595 68.4701L34.3485 69.392C34.4368 69.4434 34.5116 69.5152 34.5665 69.6015C34.6213 69.6878 34.6547 69.7859 34.6638 69.8878V71.24C34.6638 71.4162 34.5246 71.4735 34.3485 71.3752L32.7595 70.4533C32.6706 70.4015 32.5956 70.329 32.5407 70.242C32.4858 70.1549 32.4527 70.0559 32.4442 69.9534V69.9534Z" stroke="white" stroke-miterlimit="10"/>
<path d="M32.6449 68.4536C32.6449 68.4905 32.6449 69.8426 32.6449 69.8426C32.6553 69.9441 32.6892 70.0418 32.7439 70.1279C32.7987 70.2139 32.8727 70.2861 32.9602 70.3384L34.5532 71.2604C34.5901 71.2604 34.6188 71.2604 34.6515 71.2604C34.627 71.3956 34.5123 71.4489 34.3567 71.3587L32.7677 70.4368C32.6794 70.3854 32.6046 70.3136 32.5497 70.2273C32.4949 70.141 32.4615 70.0428 32.4524 69.941V68.5929C32.4442 68.47 32.5384 68.4331 32.6449 68.4536Z" stroke="white" stroke-miterlimit="10"/>
<path d="M36.8343 72.4938V71.1416C36.8343 70.9695 36.9776 70.908 37.1496 71.0105L38.7426 71.9283C38.8301 71.9807 38.9042 72.0528 38.9589 72.1389C39.0137 72.225 39.0476 72.3226 39.058 72.4241V73.7763C39.058 73.9484 38.9146 74.0099 38.7426 73.9074L37.1496 72.9896C37.0625 72.9367 36.9888 72.8645 36.9341 72.7785C36.8794 72.6925 36.8453 72.5951 36.8343 72.4938V72.4938Z" stroke="white" stroke-miterlimit="10"/>
<path d="M37.0513 70.9939C37.0309 71.0308 37.0309 72.3789 37.0309 72.3789C37.0399 72.4807 37.0733 72.5789 37.1282 72.6652C37.1831 72.7515 37.2578 72.8233 37.3462 72.8747L38.9351 73.7966C38.9761 73.7966 39.0006 73.7966 39.0375 73.7966C39.0088 73.9278 38.8983 73.981 38.7426 73.8909L37.1496 72.9894C37.0625 72.9365 36.9888 72.8643 36.9341 72.7783C36.8794 72.6924 36.8453 72.5949 36.8343 72.4936V71.1414C36.8343 71.0062 36.9326 70.9693 37.0513 70.9939Z" stroke="white" stroke-miterlimit="10"/>
</g>
<defs>
<filter id="filter0_d_1642_415" x="0.209686" y="0.421997" width="283.038" height="227.193" filterUnits="userSpaceOnUse" color-interpolation-filters="sRGB">
<feFlood flood-opacity="0" result="BackgroundImageFix"/>
<feColorMatrix in="SourceAlpha" type="matrix" values="0 0 0 0 0 0 0 0 0 0 0 0 0 0 0 0 0 0 127 0" result="hardAlpha"/>
<feOffset dy="4"/>
<feGaussianBlur stdDeviation="2"/>
<feComposite in2="hardAlpha" operator="out"/>
<feColorMatrix type="matrix" values="0 0 0 0 0 0 0 0 0 0 0 0 0 0 0 0 0 0 0.25 0"/>
<feBlend mode="normal" in2="BackgroundImageFix" result="effect1_dropShadow_1642_415"/>
<feBlend mode="normal" in="SourceGraphic" in2="effect1_dropShadow_1642_415" result="shape"/>
</filter>
</defs>
</svg>
