<svg width="1215" height="507" viewBox="0 0 1015 507" fill="none" stroke="#FFD700" xmlns="http://www.w3.org/2000/svg">
<g opacity="0.5">
<g opacity="0.5">
<path d="M35.9523 73.6591L49.3025 71.0931L53.0588 58.7561L69.0939 44.9881L80.3012 45.8887L79.944 64.7642L51.8642 57.029L80.3012 45.8887L103.418 50.0216L98.1097 73.9922L79.944 64.7642L102.777 48.2821L130.5 47.0731L136.461 69.9334L102.272 90.8691L116.645 105.217L102.075 117.69L121.399 125.709L122.532 126.177L114.797 138.453L116.719 153.898L99.0211 160.104L84.6856 152.406L95.3879 138.786L116.583 138.514L132.975 132.827L148.382 122.686L135.549 96.5935L116.645 105.217L137.483 70.76L136.042 94.8786L150.907 79.6302L160.587 99.3939L160.07 72.4378L172.731 54.4629L184.702 57.029L200.552 42.8909L205.49 62.9013L214.272 54.8577L228.656 55.7336L238.152 50.7001L203.027 42.8909L183.704 82.0482L189.652 103.07L202.005 83.2696L210.7 99.0608L215.515 112.385L235.947 115.074L250.738 99.3939L261.872 105.217L265.837 88.3401L285.456 82.1839L262.993 121.958L222.622 138.181L203.36 122.686L168.716 120.071L181.142 139.908L159.664 134.209L161.844 152.813H181.142L205.158 148.618L186.093 180.016L181.142 152.813L150.993 175.254L141.412 157.007L150.415 123.611L122.532 125.301L163.149 99.0608L180.145 81.086L169.479 118.751L143.579 157.007L118.037 181.903L91.4099 178.054L110.105 197.978L121.411 209.55L135.549 193.648L119.958 183.976L121.411 209.55L110.906 217.705L137.077 226.279L154.393 224.688L163.617 221.196L165.464 220.493L175.933 242.996L170.12 245.759L153.333 236.839L153.259 227.673"  stroke-linecap="round" stroke-linejoin="round"/>
<path d="M293.967 105.217L285.456 82.184L267.352 87.6739L294.053 109.029L265.283 119.651"  stroke-linecap="round" stroke-linejoin="round"/>
<path d="M303.671 14.1582L330.594 14.1953L342.7 18.2171L355.594 29.271L370.349 34.2674L359.191 52.0943L344.338 61.6554L355.594 29.271L379.204 13.2453L390.078 11L411.212 17.6496L397.345 37.3763L370.349 34.2674L389.992 14.4913L397.345 37.3763"  stroke-linecap="round" stroke-linejoin="round"/>
<path d="M135.131 95.6189L160.501 98.0123L169.479 120.071L148.813 122.353L159.664 134.209L132.975 132.827L116.583 153.565L141.412 157.698L160.501 152.813L150.415 175.254L119.28 180.682"  stroke-linecap="round" stroke-linejoin="round"/>
<path d="M84.6855 152.406L91.4099 178.054L99.5137 159.968L117.987 181.928L110.179 196.979L207.116 213.116C207.116 213.116 168.937 254.235 169.541 250.015C170.144 245.796 144.515 182.545 144.515 182.545L130.685 233.262L128.739 212.289L173.408 213.523L174.812 162.855C174.812 162.855 205.786 231.436 206.402 232.448C207.018 233.459 191.18 243.551 191.18 243.551L200.355 267.435"  stroke-linecap="round" stroke-linejoin="round"/>
<path d="M235.947 115.074L200.379 123.278L204.136 147.607L222.622 139.908L180.145 138.453L204.21 150.012L186.266 179.362L150.415 175.254L135.55 193.648L116.583 153.565L95.3879 139.908L102.075 117.69V90.536L97.3954 74.4857L136.449 69.4399L102.272 49.2074L131.781 46.74L156.868 48.8373"  stroke-linecap="round" stroke-linejoin="round"/>
<path d="M137.077 69.588L160.501 71.0931L182.706 80.5679L184.702 57.8309"  stroke-miterlimit="1"/>
<path d="M197.584 273.937L194.96 292.898L197.51 321.273L215.454 323.593L215.195 345.811L233.595 332.537L222.289 310.466L233.151 291.196L206.685 264.795L217.203 257.874L245.824 258.059L256.81 268.027L233.595 270.729L244.236 309.06L262.118 306.999L278.954 282.449L302.858 304.359L277.833 310.466L260.369 330.526L233.595 332.537L231.575 366.488L259.606 363.626L281.294 332.537L303.277 336.374L316.578 326.455L282.722 330.353L286.171 350.845L315.716 363.527L288.461 371.916L294.656 392.741L277.734 405.781L265.308 390.471L246.514 405.448L229.309 390.779L235.578 423.916L262.414 437.475L240.615 439.264L254.482 470.562L263.079 435.982L247.61 407.508L278.104 406.62L287.932 372.508L259.753 363.194L231.575 389.793V368.437L259.027 332.537L244.79 310.799L255.492 267.694L278.954 282.449L277.833 309.06L321.036 326.257L328.721 348.612L317.403 361.257L296.023 391.927L266.995 388.67L265.64 437.475L240.615 438.795L235.578 425.212L245.972 406.558L228.644 390.545L265.64 388.67L259.606 363.626L215.454 348.612L196.093 320.792L222.289 310.466L198.261 272.925L206.205 262.365L233.016 270.421L263.522 309.06L280.542 330.686L260.455 332.87L288.461 371.916L303.277 337.632L329.965 348.612"  stroke-miterlimit="1"/>
<path d="M186.266 179.362L207.116 213.091L206.685 264.795L175.194 242.996L217.585 256.517L207.116 213.091"  stroke-miterlimit="1"/>
<path d="M840.193 408.804L838.112 378.221L867.842 387.498L878.963 358.198L903.151 346.293L910.393 361.319L929.79 370.313L937.438 343.727L945.924 371.065L940.837 392.568L940.185 416.342L920.184 422.288L906.994 411.111L895.934 388.929L873.261 410.148L839.922 409.248L867.83 388.596L910.393 361.319L940.837 392.568L895.836 388.596L910.393 361.319L920.27 422.732L940.837 392.568L906.994 411.111L897.166 409.248L868.372 387.831"  stroke-linecap="round" stroke-linejoin="round"/>
<path d="M838.802 378.517L879.641 358.531L909.112 362.146"  stroke-linecap="round" stroke-linejoin="round"/>
<path d="M956.232 321.989L934.384 312.144L922.893 302.879H865.514L839.442 293.108L851.437 282.511L841.129 280.993L839.442 293.108"  stroke-linecap="round" stroke-linejoin="round"/>
<path d="M813.086 244.785L797.507 270.754L801.079 292.232L806.202 302.336L840.588 293.54"  stroke-linecap="round" stroke-linejoin="round"/>
<path d="M831.535 187.307L820.661 209.6L804.33 223.405L813.087 244.785"  stroke-linecap="round" stroke-linejoin="round"/>
<path d="M822.151 166.716L777.174 178.535L792.248 209.02L807.975 185.851L832.89 188.343L850.009 183.803L863.101 158.858L855.748 151.406L853.507 140.241L829.91 147.915L821.769 122.378L863.014 109.794L826.942 93.2008L821.695 65.8252L846.967 70.7476"  stroke-linecap="round" stroke-linejoin="round"/>
<path d="M893.681 79.4699L913.189 61.5197L900.885 49.775L883.803 54.5123L862.103 47.5667"  stroke-linecap="round" stroke-linejoin="round"/>
<path d="M815.168 243.847L798.517 237.555L792.248 209.02L761.964 198.829L741.298 203.801L726.482 213.005L718.49 229.894L722.738 241.676L722.935 242.218L718.058 255.962L709.388 239.763L723.773 242.218"  stroke-linecap="round" stroke-linejoin="round"/>
<path d="M703.489 225.823L699.4 210.772L718.563 181.299L695.089 188.343L671.69 189.848L681.862 167.741L706.432 150.481L743.281 177.795L741.298 203.801L718.563 178.868L730.029 215.188L698.944 210.994"  stroke-linecap="round" stroke-linejoin="round"/>
<path d="M841.129 280.993L806.202 302.324"  stroke-linecap="round" stroke-linejoin="round"/>
<path d="M851.438 282.511L922.745 302.324"  stroke-linecap="round" stroke-linejoin="round"/>
<path d="M862.017 49.7749L847.386 71.9197L826.942 93.2009L893.754 80.3705L910.528 91.7204L913.189 63.2715L882.769 54.8454L893.754 80.3705L861.598 111.657L882.683 115.568L853.95 137.367L823.075 122.168L813.086 145.768L822.151 166.026L829.91 187.739L791.115 207.169L742 175.624L762.888 154.33L737.64 146.78L765.067 132.371L783.935 120.848L795.352 141.562L778.738 178.535L813.419 145.127L790.475 89.253L754.759 90.9185L730.103 119.133L764.131 132.593L754.784 92.1276L731.31 67.4167L744.155 50.108L764.131 47.8997L788.59 58.1517L812.15 46.0739L822.693 66.0967L791.054 88.994L783.935 120.848L763.048 154.306L778.381 178.313L761.964 198.83"  stroke-linecap="round" stroke-linejoin="round"/>
<path d="M737.074 144.276L705.644 148.433L718.058 180.287L681.862 167.74L694.498 187.739L698.439 210.772L673.168 189.342L656.11 160.499L671.431 150.975L681.862 126.621L671.69 119.059L655.162 120.453L672.182 90.7457L705.558 119.059L716.642 97.8518L692.208 73.6591L730.916 68.5393L730.029 120.86L703.575 149.087L683.611 124.45L706.9 119.059L691.112 76.2129L687.959 51.3046L705.558 36.8211L684.473 34.2674L654.288 45.4323L637.452 73.6468L608.251 63.2714L616.663 45.7654L602.993 30.7637L581.785 58.4971L596.712 53.7227L604.187 93.2995L606.133 115.679L567.4 117.369L569.814 87.6739L606.219 93.2995L638.08 72.3144"  stroke-linecap="round" stroke-linejoin="round"/>
<path d="M554.37 190.835L591.551 195.721L611.084 193.858L628.055 217.298L610.702 233.792L581.699 227.501L557.461 212.672L553.976 190.909"  stroke-linecap="round" stroke-linejoin="round"/>
<path d="M659.67 87.6739L638.08 72.3145L652.243 122.55L632.797 146.287L607.278 116.838L590.061 146.78L608.251 171.232L648.401 180.028L656.11 160.499L634.373 148.248L593.928 146.78H566.612"  stroke-linecap="round" stroke-linejoin="round"/>
<path d="M529.283 179.029L500.095 181.299L517.62 201.309L495.636 226.045L470.155 208.008L474.576 177.524L444.551 175.069L418.651 193.463L442.309 206.799L454.908 192.92L447.716 233.385L410.904 213.449L409.057 223.947L414.39 239.43L426.102 258.91L452.137 261.008L476.633 250.373L447.716 233.385L470.155 208.008L476.633 250.373L508.1 250.595L532.054 232.09L517.62 201.309L554.37 190.835L610.702 233.792L614.335 264.351L599.088 283.93L575.947 279.081L565.134 263.796L585.282 251.952L598.854 283.991L587.918 300.634L567.4 315.031L538.433 315.82L556.821 282.943L535.231 287.137L528.088 270.297L550.207 249.386L581.699 227.5L585.282 251.952L575.947 279.328L556.882 282.733"  stroke-linecap="round" stroke-linejoin="round"/>
<path d="M525.699 16.7614L517.423 21.5604L516.746 50.5645L503.235 65.8129L486.264 68.6011L502.915 90.1413L508.556 113.063L489.269 123.747L483.148 105.254L459.662 120.256L455.524 141.204L440.45 143.585L459.662 120.256L489.269 123.747L502.915 90.1413L536.02 88.6856L543.914 108.745L540.921 130.372L519.541 131.877L536.549 87.3285L550.158 52.1066L516.746 50.5645L534.234 88.3771L570.885 87.6739L550.158 52.1066L582.512 58.4971L570.885 87.6739L545.17 108.326L567.4 117.369L604.187 93.2996L655.162 120.453L606.133 115.679L566.242 146.287L591.194 195.351L608.473 171.565L611.084 194.598L648.401 180.028L626.602 217.187L671.69 189.848L648.401 180.028L632.797 146.287L608.929 171.232"  stroke-linecap="round" stroke-linejoin="round"/>
<path d="M654.288 120.86L672.096 149.149L681.862 167.74L656.11 160.499L653.278 119.96L659.669 87.6739L671.431 90.9185L692.208 73.6592L655.975 45.7654L615.813 45.4323L595.899 53.7227L609.076 62.5806L654.374 44.1246L686.247 50.6508L732.234 67.5771L705.558 36.8212L736.421 39.3872L742.702 47.8997L752.025 39.3872L765.067 46.6167L754.71 90.9185L715.583 97.8519L732.234 67.5771L788.59 57.2141L789.514 89.253L812.15 46.0739H828.05L846.967 70.7477L861.598 110.226L884.086 53.3773L861.955 47.8504L829.405 45.7654L821.695 65.8252"  stroke-linecap="round" stroke-linejoin="round"/>
<path d="M792.384 90.7458L826.24 94.3235L823.074 121.292L783.935 120.848L756.003 92.9664L787.741 58.4601L822.151 68.2186"  stroke-linecap="round" stroke-linejoin="round"/>
<path d="M474.577 177.524L499.085 180.287L495.55 225.144L506.795 249.719L491.806 277.835L502.558 295.847M502.558 295.847L528.088 270.297L565.134 263.796L550.207 249.386M502.558 295.847L538.951 315.376L571.391 339.803M502.558 295.847L505.612 315.031M550.207 249.386L531.968 233.521L557.461 212.671L550.207 249.386ZM550.207 249.386L555.688 282.35L567.4 315.031M567.4 315.031L591.293 329.847L590.295 351.4L571.391 339.803M567.4 315.031L571.391 339.803M567.4 315.031L537.325 345.639M571.391 339.803L563.816 367.389M537.325 345.639L517.62 326.356M537.325 345.639L532.941 366.784M537.325 345.639L563.816 367.389M537.325 345.639L505.612 354.361M517.62 326.356L538.951 315.82L535.232 287.137L505.612 315.031M517.62 326.356L505.612 315.031M517.62 326.356L505.612 354.361M505.612 315.031L503.74 342.851L505.612 354.361M505.612 354.361L532.941 366.784M532.941 366.784L516.573 375.482L518.458 417.267L532.793 400.143L556.846 393.654L563.816 367.389M532.941 366.784L563.816 367.389"  stroke-linecap="round" stroke-linejoin="round"/>
<path d="M850.009 183.803L840.193 170.208L821.646 166.026L855.748 151.406L830.267 149.149L812.237 145.583L795.105 142.104L761.976 154.898L764.131 132.593"  stroke-linecap="round" stroke-linejoin="round"/>
<path d="M807.975 185.148L777.236 178.535L743.392 174.316L737.123 145.583L730.165 120.86L707.073 119.059L705.299 149.087L672.342 149.149L633.092 146.287"  stroke-linecap="round" stroke-linejoin="round"/>
<path d="M417.961 192.92L410.904 212.672L442.309 206.799L447.716 232.189L414.39 239.43"  stroke-linecap="round" stroke-linejoin="round"/>
<path d="M172.731 54.1298L156.868 48.8373L136.448 69.4399L150.907 79.6302"  stroke-linecap="round" stroke-linejoin="round"/>
<path fill-rule="evenodd" clip-rule="evenodd" d="M886.845 166.717L903.829 158.093L903.164 139.032L886.845 166.717Z"  stroke-linecap="round" stroke-linejoin="round"/>
</g>
</g>
</svg>
